<?xml version="1.0" encoding="UTF-8" standalone="no"?>
<svg
   version="1.1"
   id="Layer_1"
   x="0px"
   y="0px"
   width="330"
   viewBox="0 0 330 240"
   enable-background="0 0 100 100"
   sodipodi:docname="identification.svg"
   inkscape:export-filename="../../../../../../../../Downloads/identification.png"
   inkscape:export-xdpi="100"
   inkscape:export-ydpi="100"
   height="240"
   inkscape:version="1.3 (1:1.3+202307231459+0e150ed6c4)"
   xmlns:inkscape="http://www.inkscape.org/namespaces/inkscape"
   xmlns:sodipodi="http://sodipodi.sourceforge.net/DTD/sodipodi-0.dtd"
   xmlns="http://www.w3.org/2000/svg"
   xmlns:svg="http://www.w3.org/2000/svg">
  <defs
     id="defs8" />
  <sodipodi:namedview
     id="namedview8"
     pagecolor="#ffffff"
     bordercolor="#000000"
     inkscape:pageopacity="0.0"
     inkscape:pagecheckerboard="false"
     inkscape:deskcolor="#d1d1d1"
     inkscape:current-layer="Layer_1"
     inkscape:window-x="0"
     inkscape:window-y="0"
     inkscape:window-maximized="1" />
  <path
     fill="#000000"
     opacity="1"
     d="m 114.93583,132.03849 c -32.638289,0 -64.212056,0.0342 -95.785717,-0.0168 C 6.3665792,132.00099 2.1370121,127.52228 2.1103761,113.90802 2.0496961,82.846172 2.0379861,51.78393 2.1167761,20.722185 2.1491361,7.9375608 6.6151692,3.1909538 18.605532,3.1770598 c 48.602177,-0.05634 97.204498,-0.05613 145.806708,-1.55e-4 11.99941,0.01381 16.46895,4.754577 16.50108,17.5317362 0.079,31.445234 0.0988,62.891152 -0.0106,94.336159 -0.0424,12.16322 -4.54361,16.87812 -15.9455,16.96272 -16.31819,0.12115 -32.63771,0.031 -50.02122,0.031 M 90.590113,93.014946 69.057221,79.953235 c 1.836558,-2.384094 2.716001,-3.503481 3.573429,-4.64221 C 82.072065,62.772209 78.4646,48.936276 77.874081,35.001787 77.716951,31.295471 71.519965,24.693287 66.388253,23.459421 50.422151,19.620537 36.489547,24.681678 36.103427,42.052071 35.801812,55.621611 35.301655,69.105725 45.588021,79.844298 34.401942,89.459508 14.72971,90.162717 19.781063,113.00902 H 95.574138 C 95.229089,105.9987 95.362075,100.18987 92.417875,93.014946 M 139.38425,39.977949 c -9.86333,3.25e-4 -19.73894,-0.289464 -29.58153,0.198874 -2.55587,0.126813 -5.00847,2.685981 -7.50851,4.12793 2.32969,1.625898 4.63372,4.609516 6.99313,4.661596 17.8977,0.395081 35.80623,0.21609 54.55308,0.21609 4.97377,-2.908895 8.13487,-5.220225 -0.49107,-9.20449 h -23.9651 m -37.10648,28.637832 c 2.0331,1.192486 4.05351,3.390049 6.1013,3.420303 18.2716,0.269815 36.54802,0.15717 55.54011,0.15717 9.39689,-4.382326 6.01343,-6.831711 -0.76117,-9.200109 -17.75616,0 -34.68416,-0.178414 -51.60326,0.16152 -3.11121,0.06251 -6.18631,2.227062 -9.27698,5.461116 m 24.45651,17.392439 c -5.63649,3.16e-4 -11.31598,-0.440532 -16.89049,0.194915 -2.6207,0.298744 -5.03936,2.668263 -7.54958,4.099397 2.31983,1.636723 4.61371,4.640541 6.96362,4.692657 17.90004,0.396967 35.81102,0.217493 54.57837,0.217493 8.07389,-3.464225 3.82395,-6.143242 -0.46213,-9.204462 z"
     id="path1"
     style="fill:#b6b6b6;fill-opacity:1;stroke-width:1.10683;stroke-dasharray:none"
     inkscape:export-filename="../../../../../../../../Downloads/path3.png"
     inkscape:export-xdpi="2.8"
     inkscape:export-ydpi="2.8"
     sodipodi:nodetypes="csccssssscccsssscccccscscccccccsccscsccc" />
</svg>
