<?xml version="1.0" encoding="UTF-8" standalone="no"?>
<svg
   version="1.1"
   width="13.641357pt"
   height="12.752838pt"
   id="svg3420"
   viewBox="0 0 13.641357 12.752838"
   sodipodi:docname="Telas App.cdr"
   inkscape:version="1.3 (1:1.3+202307231459+0e150ed6c4)"
   xmlns:inkscape="http://www.inkscape.org/namespaces/inkscape"
   xmlns:sodipodi="http://sodipodi.sourceforge.net/DTD/sodipodi-0.dtd"
   xmlns="http://www.w3.org/2000/svg"
   xmlns:svg="http://www.w3.org/2000/svg">
  <sodipodi:namedview
     id="namedview3420"
     pagecolor="#ffffff"
     bordercolor="#000000"
     borderopacity="0.25"
     inkscape:showpageshadow="2"
     inkscape:pageopacity="0.0"
     inkscape:pagecheckerboard="0"
     inkscape:deskcolor="#d1d1d1"
     inkscape:zoom="4.7800005"
     inkscape:cx="5996.0245"
     inkscape:cy="1144.3514"
     inkscape:window-width="1300"
     inkscape:window-height="704"
     inkscape:window-x="0"
     inkscape:window-y="0"
     inkscape:window-maximized="1"
     inkscape:current-layer="svg3420"
     inkscape:document-units="pt"
     inkscape:export-bgcolor="#ffffff03" />
  <defs
     id="defs4" />
  <defs
     id="defs17" />
  <defs
     id="defs28" />
  <defs
     id="defs58" />
  <defs
     id="defs91" />
  <defs
     id="defs136" />
  <defs
     id="defs189" />
  <defs
     id="defs245" />
  <defs
     id="defs280" />
  <defs
     id="defs293" />
  <defs
     id="defs358" />
  <defs
     id="defs362" />
  <defs
     id="defs400" />
  <defs
     id="defs403" />
  <defs
     id="defs437" />
  <defs
     id="defs554" />
  <defs
     id="defs627" />
  <defs
     id="defs649" />
  <defs
     id="defs733" />
  <defs
     id="defs842" />
  <defs
     id="defs865" />
  <defs
     id="defs947" />
  <defs
     id="defs970" />
  <defs
     id="defs1065" />
  <defs
     id="defs1088" />
  <defs
     id="defs1207" />
  <defs
     id="defs1230" />
  <defs
     id="defs1260" />
  <defs
     id="defs1283" />
  <defs
     id="defs1317" />
  <defs
     id="defs1340" />
  <defs
     id="defs1367" />
  <defs
     id="defs1390" />
  <defs
     id="defs1437" />
  <defs
     id="defs1460" />
  <defs
     id="defs1492" />
  <defs
     id="defs1521" />
  <defs
     id="defs1544" />
  <g
     id="Layer1271"
     transform="translate(-6774.6247,-1097.7187)">
    <path
       d="m 6788.0276,1106.7927 -0.011,-0.01 -3.8063,-7.1397 c -0.1787,-0.3465 -0.371,-0.6436 -0.5721,-0.9053 -0.5252,-0.6224 -1.3143,-1.019 -2.1936,-1.019 -0.9554,0 -1.7958,0.4694 -2.3178,1.1869 -0.1565,0.2233 -0.3095,0.4625 -0.4536,0.7374 l -3.8107,7.1463 c -0.7733,1.4495 0.4491,3.7002 2.084,3.6821 h 8.9971 c 1.6371,0.018 2.8585,-2.2326 2.0841,-3.6821 z"
       style="fill:#000000;fill-rule:evenodd"
       id="path2890" />
    <path
       d="m 6780.6747,1107.6714 v -0.7374 c 0,-0.2214 0.1806,-0.402 0.402,-0.402 h 0.7375 c 0.2214,0 0.4019,0.1806 0.4019,0.402 v 0.7374 c 0,0.2214 -0.1805,0.402 -0.4019,0.402 h -0.7375 c -0.2214,0 -0.402,-0.1806 -0.402,-0.402 z m 0.1391,-2.1863 -0.1894,-4.9435 c 0,-0.1134 0.034,-0.2125 0.1121,-0.2943 0.079,-0.082 0.1764,-0.1232 0.2898,-0.1232 h 0.8379 c 0.1134,0 0.2113,0.042 0.2898,0.1232 0.079,0.082 0.1166,0.1809 0.1122,0.2943 l -0.1894,4.9435 c -0.01,0.2157 -0.1857,0.3864 -0.4017,0.3864 h -0.4596 c -0.2161,0 -0.3935,-0.1707 -0.4017,-0.3864 z"
       style="fill:#ffffff;fill-rule:evenodd"
       id="path2891" />
  </g>
  <defs
     id="defs3166" />
  <defs
     id="defs3378" />
  <defs
     id="defs3416" />
</svg>
