<?xml version="1.0" encoding="UTF-8" standalone="no"?>
<svg
   version="1.1"
   width="117.31274pt"
   height="322.87601pt"
   id="svg3420"
   viewBox="0 0 117.31274 322.87601"
   sodipodi:docname="Telas App.cdr"
   inkscape:version="1.3 (1:1.3+202307231459+0e150ed6c4)"
   xmlns:inkscape="http://www.inkscape.org/namespaces/inkscape"
   xmlns:sodipodi="http://sodipodi.sourceforge.net/DTD/sodipodi-0.dtd"
   xmlns:xlink="http://www.w3.org/1999/xlink"
   xmlns="http://www.w3.org/2000/svg"
   xmlns:svg="http://www.w3.org/2000/svg">
  <sodipodi:namedview
     id="namedview3420"
     pagecolor="#ffffff"
     bordercolor="#000000"
     borderopacity="0.25"
     inkscape:showpageshadow="2"
     inkscape:pageopacity="0.0"
     inkscape:pagecheckerboard="0"
     inkscape:deskcolor="#d1d1d1"
     inkscape:zoom="4.7800005"
     inkscape:cx="5996.0245"
     inkscape:cy="1144.3514"
     inkscape:window-width="1300"
     inkscape:window-height="704"
     inkscape:window-x="0"
     inkscape:window-y="0"
     inkscape:window-maximized="1"
     inkscape:current-layer="svg3420"
     inkscape:document-units="pt" />
  <defs
     id="defs4" />
  <defs
     id="defs17" />
  <defs
     id="defs28" />
  <defs
     id="defs58" />
  <defs
     id="defs91" />
  <defs
     id="defs136" />
  <defs
     id="defs189" />
  <defs
     id="defs245" />
  <defs
     id="defs280" />
  <defs
     id="defs293" />
  <defs
     id="defs358" />
  <defs
     id="defs362" />
  <defs
     id="defs400" />
  <defs
     id="defs403" />
  <defs
     id="defs437" />
  <defs
     id="defs554" />
  <defs
     id="defs627" />
  <defs
     id="defs649" />
  <defs
     id="defs733" />
  <defs
     id="defs842" />
  <defs
     id="defs865" />
  <defs
     id="defs947" />
  <defs
     id="defs970" />
  <defs
     id="defs1065" />
  <defs
     id="defs1088" />
  <defs
     id="defs1207" />
  <defs
     id="defs1230" />
  <defs
     id="defs1260" />
  <defs
     id="defs1283" />
  <defs
     id="defs1317" />
  <defs
     id="defs1340" />
  <defs
     id="defs1367" />
  <defs
     id="defs1390" />
  <defs
     id="defs1437" />
  <defs
     id="defs1460" />
  <defs
     id="defs1492">
    <linearGradient
       id="grad85">
      <stop
         offset="0%"
         stop-color="#e8e8e8"
         stop-opacity="1.0000"
         id="stop1491" />
      <stop
         offset="100%"
         stop-color="#ebebeb"
         stop-opacity="1.0000"
         id="stop1492" />
    </linearGradient>
    <linearGradient
       xlink:href="#grad85"
       id="grad86"
       x1="14429.16"
       y1="674.86763"
       x2="14429.16"
       y2="869.48869"
       gradientTransform="matrix(0.6027734,0,0,1.6589982,-8697.5139,-1119.6042)"
       gradientUnits="userSpaceOnUse" />
  </defs>
  <path
     d="M -2.142984e-4,7.2765036 V 263.3412 q 0,59.5348 59.5347002984,59.5348 h -1.7571 q 59.534804,0 59.534804,-59.5348 V 7.2765036 q 0,-7.2764999550747 -7.2765,-7.2764999550747 H 7.2762857 q -7.2764999984,0 -7.2764999984,7.2764999550747 z"
     style="fill:url(#grad86)"
     id="path1492" />
  <path
     d="m 75.997986,17.025804 v 17.9728 q 0,5.3536 5.3536,5.3536 h 17.9728 q 5.353604,0 5.353604,-5.3536 v -17.9728 q 0,-5.3536 -5.353604,-5.3536 h -17.9728 q -5.3536,0 -5.3536,5.3536 z"
     style="fill:#ffffff;fill-rule:evenodd"
     id="path1495" />
  <path
     d="m 50.069286,61.935704 h 17.1347 c 3.9735,0 7.2145,3.241 7.2145,7.2145 v 23.0351 h 23.0354 c 3.973504,0 7.214504,3.241 7.214504,7.2145 V 116.5345 c 0,3.9735 -3.241,7.2144 -7.214504,7.2144 h -23.0354 v 23.0355 c 0,3.9735 -3.241,7.2144 -7.2145,7.2144 h -17.1347 c -3.9735,0 -7.2144,-3.2409 -7.2144,-7.2144 v -23.0355 h -23.0352 c -3.9734,0 -7.2144,-3.2409 -7.2144,-7.2144 V 99.399804 c 0,-3.9735 3.241,-7.2145 7.2144,-7.2145 h 23.0352 v -23.0351 c 0,-3.9735 3.2409,-7.2145 7.2144,-7.2145 z"
     style="fill:#ffffff;fill-rule:evenodd"
     id="path1496"
     inkscape:export-filename="../../Documentos/freelance/Hotel_Vivenzo/pages/reservation/options/tv/image/tv.svg"
     inkscape:export-xdpi="96"
     inkscape:export-ydpi="96" />
  <path
     d="m 58.636686,146.711 2.9487,-3.724 2.9487,-3.7241 h -5.8974 -5.8974 l 2.9487,3.7241 z"
     style="fill:#000000;fill-rule:evenodd"
     id="path1497" />
  <path
     d="m 96.276686,107.9675 -3.724,-2.9487 -3.7241,-2.9487 v 5.8974 5.8974 l 3.7241,-2.9487 z"
     style="fill:#000000;fill-rule:evenodd"
     id="path1498" />
  <path
     d="m 58.636686,71.431504 2.9487,3.7241 2.9487,3.7241 h -5.8974 -5.8974 l 2.9487,-3.7241 z"
     style="fill:#000000;fill-rule:evenodd"
     id="path1499" />
  <path
     d="m 20.997186,107.9675 3.7241,-2.9487 3.7241,-2.9487 v 5.8974 5.8974 l -3.7241,-2.9487 z"
     style="fill:#000000;fill-rule:evenodd"
     id="path1500" />
  <text
     x="51.082764"
     y="111.92901"
     id="text1500"><tspan
       font-family="'Rubik Medium'"
       font-size="10.5px"
       fill="#000000"
       id="tspan1500">OK</tspan></text>
  <path
     d="m 12.605386,17.014204 v 17.9727 q 0,5.3536 5.3536,5.3536 h 17.9728 q 5.3536,0 5.3536,-5.3536 v -17.9727 q 0,-5.3536 -5.3536,-5.3536 h -17.9728 q -5.3536,0 -5.3536,5.3536 z"
     style="fill:#ffffff;fill-rule:evenodd"
     id="path1502" />
  <g
     id="Layer1111"
     transform="translate(-8697.5139,-1119.6042)">
    <g
       id="Layer1112">
      <g
         id="Layer1113">
        <path
           d="m 8718.4882,1146.8439 c -0.1958,-2.1076 0.7043,-4.0166 2.1973,-5.2295 0.582,-0.4732 1.4522,-0.068 1.4522,0.6799 v 0 c 0,0.2746 -0.1305,0.5275 -0.3426,0.6989 -1.0579,0.862 -1.6943,2.2218 -1.5393,3.7229 0.2013,1.9553 1.7677,3.5381 3.7203,3.7556 2.5481,0.2856 4.7128,-1.7105 4.7128,-4.2016 0,-1.3216 -0.6119,-2.5046 -1.5664,-3.2797 -0.2121,-0.1713 -0.3399,-0.4242 -0.3399,-0.6961 v 0 c 0,-0.7397 0.8566,-1.1585 1.4331,-0.6962 1.3652,1.1014 2.2409,2.7847 2.2409,4.672 0,3.451 -2.9316,6.2331 -6.437,5.9802 -2.899,-0.204 -5.2622,-2.5128 -5.5314,-5.4064 z m 5.9692,-7.9 c -0.4895,0 -0.8838,0.397 -0.8838,0.8838 v 4.071 c 0,0.4895 0.397,0.8839 0.8838,0.8839 0.4868,0 0.8839,-0.3971 0.8839,-0.8839 v -4.071 c 0,-0.4868 -0.3944,-0.8838 -0.8839,-0.8838 z"
           style="fill:#000000;fill-rule:evenodd"
           id="path1503" />
      </g>
    </g>
  </g>
  <path
     d="m 90.492186,19.472204 c 0.2488,-0.032 0.5079,0.01 0.7475,0.1188 0.2406,0.1125 0.4365,0.2869 0.5709,0.4983 0.1349,0.2126 0.21,0.4635 0.21,0.7282 v 10.3661 c 0,0.2647 -0.075,0.5159 -0.21,0.7285 -0.1344,0.2117 -0.3303,0.3863 -0.5709,0.4989 -0.2396,0.1122 -0.4984,0.1505 -0.7473,0.1185 -0.2497,-0.032 -0.4906,-0.1353 -0.6947,-0.3051 l -3.0407,-2.5336 h -1.9886 c -0.3741,0 -0.7134,-0.1525 -0.9583,-0.3974 -0.2452,-0.2463 -0.3975,-0.5856 -0.3975,-0.9584 v -4.6683 c 0,-0.3728 0.152,-0.7115 0.3975,-0.9573 0.2466,-0.2463 0.5856,-0.3986 0.9583,-0.3986 h 1.9886 l 3.0407,-2.5336 c 0.2035,-0.1695 0.4444,-0.2727 0.6945,-0.305 z m -5.7238,8.9859 h 1.5923 v -4.9099 h -1.5923 c -0.032,0 -0.062,0.014 -0.084,0.035 -0.022,0.021 -0.035,0.051 -0.035,0.084 v 4.6683 c 0,0.034 0.014,0.066 0.036,0.089 0.021,0.021 0.05,0.035 0.082,0.035 z m 5.9999,2.7881 c 0.01,-0.014 0.015,-0.034 0.015,-0.063 v -10.3661 c 0,-0.037 -0.012,-0.061 -0.025,-0.076 -0.015,-0.017 -0.033,-0.027 -0.042,-0.032 -0.012,0 -0.031,-0.011 -0.053,-0.012 -0.021,-5e-4 -0.048,0.01 -0.075,0.028 l -2.99,2.4919 v 5.5662 l 2.9894,2.4916 c 0.023,0.018 0.042,0.026 0.058,0.028 0.031,0 0.058,-0.01 0.069,-0.011 0.011,0 0.036,-0.018 0.053,-0.046 z"
     style="fill:#000000;fill-rule:evenodd"
     id="path1505" />
  <path
     d="m 95.672986,26.514304 1.213,-1.2135 c 0.1443,-0.1437 0.1443,-0.377 0,-0.5207 -0.1432,-0.144 -0.377,-0.144 -0.521,0 l -1.2135,1.2132 -1.2135,-1.2132 c -0.1443,-0.144 -0.3773,-0.144 -0.5213,0 -0.1437,0.1437 -0.1437,0.377 0,0.5207 l 1.2135,1.2135 -1.2135,1.2141 c -0.1437,0.144 -0.1437,0.3776 0,0.5213 0.144,0.144 0.377,0.144 0.5213,0 l 1.2135,-1.2135 1.2135,1.2135 c 0.144,0.144 0.3778,0.144 0.521,0 0.1443,-0.1437 0.1443,-0.3773 0,-0.5213 z"
     style="fill:#000000;fill-rule:evenodd;stroke:#000000;stroke-width:0.5;stroke-linecap:butt;stroke-linejoin:miter;stroke-dasharray:none"
     id="path1506" />
  <path
     d="m 58.837686,169.5343 v 17.9727 q 0,5.3536 5.3536,5.3536 h 35.0442 q 5.353604,0 5.353604,-5.3536 v -17.9727 q 0,-5.3536 -5.353604,-5.3536 h -35.0442 q -5.3536,0 -5.3536,5.3536 z"
     style="fill:#ffffff;fill-rule:evenodd"
     id="path1508" />
  <path
     d="m 75.987586,207.8174 v 56.6801 q 0,5.3537 5.3537,5.3537 h 17.9732 q 5.353804,0 5.353804,-5.3537 v -56.6801 q 0,-5.3537 -5.353804,-5.3537 h -17.9732 q -5.3537,0 -5.3537,5.3537 z"
     style="fill:#ffffff;fill-rule:evenodd"
     id="path1510" />
  <path
     d="m 90.328086,259.8166 2.9487,-3.724 2.9487,-3.7241 h -5.8974 -5.8974 l 2.9487,3.7241 z"
     style="fill:#000000;fill-rule:evenodd"
     id="path1511" />
  <text
     x="85.962646"
     y="238.60881"
     id="text1511"><tspan
       font-family="'Rubik Medium'"
       font-size="7px"
       fill="#000000"
       id="tspan1511">CH</tspan></text>
  <path
     d="m 12.641686,169.4696 v 17.9728 q 0,5.3536 5.3536,5.3536 h 17.9728 q 5.3536,0 5.3536,-5.3536 v -17.9728 q 0,-5.3536 -5.3536,-5.3536 h -17.9728 q -5.3536,0 -5.3536,5.3536 z"
     style="fill:#ffffff;fill-rule:evenodd"
     id="path1513" />
  <path
     d="m 19.183186,175.4197 v 0.017 c -2e-4,0.1989 0.075,0.3977 0.2267,0.5491 l 2.5242,2.5242 c 0.3035,0.3035 0.7939,0.302 1.0959,0 0.3017,-0.3017 0.3017,-0.7941 -3e-4,-1.0958 l -1.9864,-1.9864 1.9859,-1.9859 c 0.3018,-0.3018 0.3035,-0.7924 0,-1.0959 -0.3034,-0.3035 -0.7941,-0.3017 -1.0958,3e-4 l -2.524,2.524 c -0.1514,0.1513 -0.2267,0.3507 -0.2262,0.5495 z"
     style="fill:#000000;fill-rule:evenodd"
     id="path1514" />
  <path
     d="m 66.207386,182.8068 v -4.9693 l 0.052,0.1418 c 0.3807,1.1416 0.7868,2.2928 1.1683,3.4373 l 0.4085,1.2012 c 0.056,0 0.1262,-0.016 0.1884,-0.025 0.07,-0.01 0.1329,-0.016 0.1994,-0.024 l 0.9907,-0.1146 c 0.068,-0.01 0.1318,-0.017 0.1923,-0.031 v -8.5813 h -1.4351 l -0.01,5.1752 -0.3989,-1.1137 c -0.019,-0.053 -0.039,-0.1123 -0.059,-0.1637 -0.074,-0.1842 -0.1625,-0.4599 -0.2316,-0.6508 l -1.1647,-3.247 h -1.3672 v 4.79 4.3827 l 1.2792,-0.1753 c 0.037,0 0.1598,-0.01 0.1851,-0.033 z m 32.3087,-8.557 c 0.023,-0.07 0.056,-0.1357 0.084,-0.2064 0.024,-0.06 0.067,-0.1429 0.08,-0.2008 h -1.5709 c -0.017,0.035 -0.032,0.08 -0.048,0.1166 -0.014,0.032 -0.041,0.093 -0.049,0.1259 l -0.1136,0.2645 c -0.037,0.093 -0.073,0.1756 -0.1107,0.2675 l -0.557,1.3338 c -0.021,0.051 -0.037,0.087 -0.057,0.137 -0.02,0.049 -0.043,0.091 -0.054,0.14 h -0.019 c -0.012,-0.052 -0.039,-0.1073 -0.057,-0.1563 l -0.4375,-1.1188 -0.3199,-0.829 c -0.019,-0.047 -0.036,-0.088 -0.055,-0.1394 -0.018,-0.052 -0.04,-0.091 -0.052,-0.1418 h -1.5513 l 0.4108,1.073 c 0,0 0,0.01 0.01,0.013 0.01,0.019 0,0.01 0.01,0.015 0.01,0.047 0.025,0.076 0.042,0.1183 l 1.1928,3.0732 c 0.012,0.048 -0.2095,0.5048 -0.2385,0.5727 l -1.4988,3.4172 c -0.016,0.039 -0.032,0.079 -0.05,0.1149 -0.013,0.027 -0.042,0.088 -0.049,0.1164 0.1442,0.034 0.9215,0.097 1.1593,0.1302 0.068,0.01 0.124,0.017 0.1879,0.025 0.055,0.01 0.143,0.027 0.1944,0.028 l 1.0098,-2.345 c 0,-0.012 0.011,-0.029 0.017,-0.041 l 0.03,-0.038 c 0,0.035 0.099,0.2779 0.1191,0.3271 l 0.1269,0.3286 c 0.076,0.2128 0.1776,0.4501 0.2568,0.6644 0.1339,0.3626 0.3173,0.7996 0.4438,1.156 0.022,0.061 0.047,0.1081 0.062,0.1709 0.066,0 0.1425,0.019 0.2037,0.029 0.1652,0.027 1.3309,0.223 1.4157,0.223 l -0.4155,-1.1068 c -0.07,-0.189 -0.1364,-0.3668 -0.2092,-0.5569 l -0.2106,-0.5554 c -0.035,-0.086 -0.071,-0.1866 -0.1039,-0.2742 l -0.8394,-2.2247 c -0.042,-0.1103 -0.043,-0.076 0.04,-0.2686 l 0.4501,-1.082 c 0.035,-0.086 0.072,-0.1777 0.1118,-0.2664 l 0.2251,-0.5411 c 0.218,-0.5325 0.4654,-1.0974 0.6745,-1.6233 0.037,-0.093 0.074,-0.1792 0.1122,-0.2661 z m -27.7078,-0.4072 c -0.032,0.034 -0.015,0.2002 -0.015,0.2522 v 8.2127 l 0.4973,-0.036 c 0.081,-0.011 0.1703,-0.01 0.2424,-0.019 0.083,-0.011 0.1746,-0.012 0.2508,-0.021 l 0.4937,-0.04 c 0.2742,-0.021 0.6214,-0.056 0.8722,-0.068 0.1705,-0.01 0.4842,-0.047 0.6205,-0.049 0.1816,0 0.5429,-0.052 0.7466,-0.058 0.08,0 0.1679,-0.019 0.2521,-0.019 v -1.3865 l -0.7954,0.039 c -0.063,-2e-4 -0.087,0.01 -0.1549,0.01 l -0.5435,0.038 c -0.028,0 -0.058,0 -0.086,0.001 l -0.5533,0.038 c -0.042,0 -0.035,0.01 -0.078,0.01 -0.073,0 -0.2657,0.01 -0.3199,0.029 v -2.1331 l 0.4653,-0.019 c 0.081,3e-4 0.1617,0 0.2426,0 0.092,1e-4 0.1473,-0.01 0.2326,-0.01 0.3231,0 0.6466,0 0.9698,0 v -1.4351 c -0.1617,0 -0.3232,0 -0.4849,0 -0.383,0 -0.7901,0.019 -1.1927,0.019 -0.039,0 -0.078,-9e-4 -0.1167,-4e-4 -0.049,6e-4 -0.067,0.01 -0.116,0.01 v -1.9294 h 2.5308 v -1.4351 z m 20.1832,8.3097 c 0,0.049 0.098,0.024 0.1525,0.032 l 0.5453,0.036 c 0.1128,8e-4 0.2613,0.013 0.3618,0.026 l 0.3562,0.032 v -8.4358 h -1.4158 z m -5.081,-0.2618 0.2421,0.01 c 0.082,0 0.1711,0 0.2525,-4e-4 0.045,0 0.06,0.01 0.1161,0.01 l 0.6211,0.019 c 0.056,1e-4 0.066,0.01 0.1157,0.01 0.041,0 0.085,0 0.1268,-7e-4 l 1.5708,0.087 c 0.054,4e-4 0.062,0.01 0.1158,0.01 0.1474,10e-4 0.3676,0.029 0.4755,0.029 0.057,-1e-4 0.066,0.01 0.116,0.01 0.055,0 0.086,0.01 0.1263,0.01 v -1.4351 c -0.2068,0 -0.3998,-0.027 -0.6016,-0.029 -0.057,-6e-4 -0.079,-0.011 -0.1451,-0.01 -0.066,7e-4 -0.088,-0.01 -0.1551,-0.01 -0.065,5e-4 -0.084,-0.01 -0.1451,-0.01 -0.067,10e-5 -0.1013,-0.01 -0.1552,-0.01 -0.2063,-0.01 -0.4029,-0.026 -0.6116,-0.029 l -0.3042,-0.016 c -0.089,-0.014 -0.2211,0 -0.316,0 v -6.6905 h -1.4448 z m -10.22,-6.6128 c 0.1864,0 1.4134,-0.017 1.4835,0.01 v 6.6032 c 0.1011,0 0.1647,-0.01 0.2618,-0.01 0.091,2e-4 0.1813,5e-4 0.2719,4e-4 0.058,-1e-4 0.07,-0.01 0.1252,-0.011 l 0.7763,4e-4 v -6.5838 c 0.07,-0.027 1.3059,-0.01 1.4932,-0.01 v -1.4351 h -4.4119 z m 5.3232,6.5158 h 1.4158 v -3.2579 h 1.9587 v -1.4351 h -1.9587 v -1.8228 h 2.5988 v -1.4351 h -4.0146 z"
     style="fill:#000000;fill-rule:evenodd"
     id="path1515" />
  <path
     d="m 25.845786,183.7414 h 3.5965 c 2.2946,0 4.1716,-1.8771 4.1716,-4.1717 v -2e-4 c 0,-2.2946 -1.877,-4.1717 -4.1716,-4.1717 h -9.4742"
     style="fill:none;stroke:#000000;stroke-width:1.6999;stroke-linecap:round;stroke-linejoin:miter;stroke-dasharray:none"
     id="path1516" />
  <path
     d="m 12.605186,207.8174 v 56.6801 q 0,5.3537 5.3538,5.3537 h 17.9732 q 5.3538,0 5.3538,-5.3537 v -56.6801 q 0,-5.3537 -5.3538,-5.3537 h -17.9732 q -5.3538,0 -5.3538,5.3537 z"
     style="fill:#ffffff;fill-rule:evenodd"
     id="path1518" />
  <path
     d="m 26.945686,259.8166 2.9487,-3.724 2.9487,-3.7241 h -5.8974 -5.8974 l 2.9487,3.7241 z"
     style="fill:#000000;fill-rule:evenodd"
     id="path1519" />
  <path
     d="m 26.945686,210.7707 2.9487,3.7241 2.9487,3.724 h -5.8974 -5.8974 l 2.9487,-3.724 z"
     style="fill:#000000;fill-rule:evenodd"
     id="path1520" />
  <text
     x="20.540773"
     y="238.60881"
     id="text1520"><tspan
       font-family="'Rubik Medium'"
       font-size="7px"
       fill="#000000"
       id="tspan1520">VOL</tspan></text>
  <defs
     id="defs1521" />
  <defs
     id="defs1544" />
  <path
     d="m 90.328086,210.7707 2.9487,3.7241 2.9487,3.724 h -5.8974 -5.8974 l 2.9487,-3.724 z"
     style="fill:#000000;fill-rule:evenodd"
     id="path1573" />
  <defs
     id="defs3166" />
  <defs
     id="defs3378" />
  <defs
     id="defs3416" />
</svg>
