<?xml version="1.0" encoding="UTF-8" standalone="no"?>
<svg
   version="1.1"
   width="12.726196pt"
   height="12.212127pt"
   id="svg3420"
   viewBox="0 0 12.726196 12.212127"
   sodipodi:docname="Telas App.cdr"
   inkscape:version="1.3 (1:1.3+202307231459+0e150ed6c4)"
   xmlns:inkscape="http://www.inkscape.org/namespaces/inkscape"
   xmlns:sodipodi="http://sodipodi.sourceforge.net/DTD/sodipodi-0.dtd"
   xmlns="http://www.w3.org/2000/svg"
   xmlns:svg="http://www.w3.org/2000/svg">
  <sodipodi:namedview
     id="namedview3420"
     pagecolor="#ffffff"
     bordercolor="#000000"
     borderopacity="0.25"
     inkscape:showpageshadow="2"
     inkscape:pageopacity="0.0"
     inkscape:pagecheckerboard="0"
     inkscape:deskcolor="#d1d1d1"
     inkscape:zoom="4.7800005"
     inkscape:cx="5996.0245"
     inkscape:cy="1144.3514"
     inkscape:window-width="1300"
     inkscape:window-height="704"
     inkscape:window-x="0"
     inkscape:window-y="0"
     inkscape:window-maximized="1"
     inkscape:current-layer="svg3420"
     inkscape:document-units="pt" />
  <defs
     id="defs4" />
  <defs
     id="defs17" />
  <defs
     id="defs28" />
  <defs
     id="defs58" />
  <defs
     id="defs91" />
  <defs
     id="defs136" />
  <defs
     id="defs189" />
  <defs
     id="defs245" />
  <defs
     id="defs280" />
  <defs
     id="defs293" />
  <defs
     id="defs358" />
  <defs
     id="defs362" />
  <defs
     id="defs400" />
  <defs
     id="defs403" />
  <defs
     id="defs437" />
  <defs
     id="defs554" />
  <defs
     id="defs627" />
  <defs
     id="defs649" />
  <defs
     id="defs733" />
  <defs
     id="defs842" />
  <defs
     id="defs865" />
  <defs
     id="defs947" />
  <defs
     id="defs970" />
  <defs
     id="defs1065" />
  <defs
     id="defs1088" />
  <defs
     id="defs1207" />
  <defs
     id="defs1230" />
  <defs
     id="defs1260" />
  <defs
     id="defs1283" />
  <defs
     id="defs1317" />
  <defs
     id="defs1340" />
  <defs
     id="defs1367" />
  <defs
     id="defs1390" />
  <defs
     id="defs1437" />
  <defs
     id="defs1460" />
  <defs
     id="defs1492" />
  <defs
     id="defs1521" />
  <defs
     id="defs1544" />
  <g
     id="Layer1212"
     transform="translate(-4517.1569,-834.12807)">
    <path
       d="m 4522.4111,839.7322 c 0.082,-0.1891 0.3031,-0.2758 0.4921,-0.1933 0.1891,0.0824 0.2758,0.303 0.1934,0.492 l -0.972,2.2184 c -0.062,0.1415 -0.1934,0.2285 -0.3479,0.2299 -0.1544,10e-4 -0.2877,-0.0827 -0.3523,-0.2231 l -0.9998,-2.1656 c -0.086,-0.1877 0,-0.4102 0.1831,-0.4967 0.1877,-0.0864 0.4102,-0.005 0.4967,0.1832 l 0.6602,1.4306 z"
       style="fill:#9928f7;fill-opacity:1;fill-rule:evenodd"
       id="path2196" />
    <path
       d="m 4524.0895,842.0835 c 0,0.2061 -0.1647,0.375 -0.3707,0.3765 -0.2061,10e-4 -0.3751,-0.1647 -0.3765,-0.3708 l -0.02,-2.2329 c 0,-0.206 0.1647,-0.375 0.3707,-0.3764 0.2061,-0.001 0.3751,0.1647 0.3765,0.3708 z"
       style="fill:#9928f7;fill-opacity:1;fill-rule:evenodd"
       id="path2197" />
    <path
       d="m 4525.1888,842.0835 c 0,0.2061 -0.1647,0.375 -0.3708,0.3765 -0.206,10e-4 -0.375,-0.1647 -0.3764,-0.3708 l -0.02,-2.2218 c -8e-4,-0.1057 0.036,-0.1973 0.1103,-0.2727 0.074,-0.0754 0.1653,-0.114 0.271,-0.1145 l 1.0111,-0.006 c 0.506,10e-4 0.8243,0.2695 0.9658,0.6139 0.053,0.1299 0.079,0.2707 0.079,0.4096 -3e-4,0.1398 -0.027,0.2798 -0.078,0.4074 -0.1408,0.3503 -0.458,0.6259 -0.932,0.6259 l -0.6647,0.003 z m -0.016,-1.8592 v 0.5615 l 0.6701,-0.004 c 0.1236,-10e-4 0.2044,-0.0694 0.239,-0.1556 0.016,-0.0414 0.025,-0.0862 0.025,-0.129 0,-0.0436 -0.01,-0.0873 -0.023,-0.1255 -0.035,-0.0842 -0.1239,-0.1506 -0.2741,-0.1508 z"
       style="fill:#9928f7;fill-opacity:1;fill-rule:evenodd"
       id="path2198" />
    <path
       d="m 4524.6202,836.4349 c -0.1009,-0.1803 -0.037,-0.4087 0.1434,-0.5097 0.1803,-0.1009 0.4088,-0.0368 0.5097,0.1435 l 0.6432,1.1412 c 0.027,0.0473 0.061,0.0862 0.099,0.1142 0.041,0.0292 0.089,0.0505 0.1426,0.0613 l 2.8343,0.5805 c 0.1987,0.0403 0.3762,0.1301 0.5196,0.2585 0.1437,0.1287 0.2526,0.2943 0.3152,0.487 0.063,0.1936 0.072,0.3912 0.032,0.578 -0.041,0.1891 -0.1315,0.3654 -0.2684,0.5153 l -1.9528,2.1348 c -0.037,0.0422 -0.065,0.0873 -0.079,0.1332 -0.015,0.0457 -0.019,0.0981 -0.013,0.1545 l 0.324,2.8749 c 0.023,0.2021 -0.01,0.3974 -0.085,0.5732 -0.078,0.1763 -0.2027,0.3311 -0.3671,0.4507 -0.1636,0.1191 -0.349,0.1891 -0.5409,0.2086 -0.1913,0.0196 -0.3869,-0.0122 -0.5717,-0.0958 l -2.6337,-1.1965 c -0.051,-0.0229 -0.1018,-0.0346 -0.1514,-0.0346 -0.049,0 -0.1003,0.0117 -0.1511,0.0346 l -2.6339,1.1965 c -0.1843,0.0836 -0.3801,0.1154 -0.5718,0.0958 -0.1921,-0.0195 -0.3772,-0.0898 -0.5405,-0.2086 -0.165,-0.1196 -0.2897,-0.2744 -0.3671,-0.4507 -0.078,-0.1758 -0.1077,-0.3716 -0.085,-0.5732 l 0.324,-2.8749 c 0.01,-0.0564 0,-0.1088 -0.013,-0.1545 -0.016,-0.0473 -0.043,-0.0924 -0.079,-0.1326 l -1.9516,-2.1354 c -0.1381,-0.1508 -0.2294,-0.3271 -0.2696,-0.5142 -0.041,-0.1876 -0.031,-0.3855 0.032,-0.5794 0.063,-0.1927 0.1721,-0.3588 0.315,-0.4867 0.1434,-0.1284 0.3206,-0.2177 0.5198,-0.2585 l 2.8341,-0.5805 c 0.054,-0.0111 0.1023,-0.0321 0.1423,-0.061 0.04,-0.0289 0.074,-0.0683 0.1012,-0.1159 l 1.4278,-2.516 c 0.1004,-0.1766 0.2393,-0.317 0.4051,-0.4139 0.1681,-0.0984 0.3591,-0.1505 0.5615,-0.1505 0.2024,0 0.3938,0.0521 0.5604,0.1491 0.1662,0.0966 0.3065,0.2381 0.4065,0.4153 l 0.1945,0.3427 c 0.1017,0.1794 0.039,0.4079 -0.1406,0.5096 -0.1794,0.1018 -0.4079,0.0389 -0.5097,-0.1406 l -0.1944,-0.3427 c -0.034,-0.0598 -0.079,-0.1066 -0.1316,-0.1369 -0.052,-0.03 -0.1151,-0.0465 -0.1851,-0.0465 -0.07,0 -0.1329,0.0165 -0.1848,0.0465 -0.052,0.0306 -0.097,0.0771 -0.1315,0.1369 l -1.4278,2.5161 c -0.081,0.1434 -0.1868,0.2624 -0.3121,0.3534 -0.1247,0.0905 -0.2699,0.154 -0.432,0.1868 l -2.8341,0.5806 c -0.068,0.0139 -0.1264,0.0425 -0.1712,0.0827 -0.045,0.0403 -0.08,0.095 -0.1012,0.1599 -0.021,0.0664 -0.025,0.1316 -0.012,0.1914 0.013,0.0609 0.043,0.1185 0.088,0.1683 l 1.9517,2.1354 c 0.1117,0.1219 0.1922,0.2585 0.2401,0.4053 0.048,0.1497 0.063,0.307 0.045,0.468 l -0.324,2.8749 c -0.01,0.0689 0,0.1338 0.026,0.1894 0.024,0.055 0.066,0.1054 0.121,0.1457 0.057,0.0411 0.1171,0.0649 0.1758,0.0709 0.061,0.006 0.1261,-0.005 0.1893,-0.0341 l 2.634,-1.1965 c 0.1497,-0.068 0.3042,-0.102 0.4589,-0.102 0.1548,0 0.309,0.034 0.4592,0.102 l 2.6337,1.1965 c 0.064,0.0287 0.1284,0.04 0.1879,0.0341 0.06,-0.006 0.1214,-0.0301 0.1775,-0.0709 0.056,-0.0403 0.097,-0.0907 0.121,-0.1457 0.024,-0.0556 0.034,-0.1205 0.026,-0.1894 l -0.324,-2.8749 c -0.018,-0.1615 0,-0.3186 0.045,-0.4665 0.048,-0.1497 0.1281,-0.2861 0.2384,-0.4068 l 1.9528,-2.1345 c 0.046,-0.0519 0.076,-0.1097 0.089,-0.169 0.013,-0.0598 0.01,-0.125 -0.012,-0.1899 -0.022,-0.0663 -0.057,-0.1216 -0.1015,-0.1616 -0.045,-0.0402 -0.1032,-0.0691 -0.171,-0.0827 l -2.8343,-0.5806 c -0.1616,-0.0328 -0.3073,-0.0963 -0.4323,-0.187 -0.1264,-0.0919 -0.2322,-0.2109 -0.3129,-0.3547 z"
       style="fill:#9928f7;fill-opacity:1;fill-rule:evenodd"
       id="path2199" />
  </g>
  <defs
     id="defs3166" />
  <defs
     id="defs3378" />
  <defs
     id="defs3416" />
</svg>
