<?xml version="1.0" encoding="UTF-8" standalone="no"?>
<svg
   version="1.1"
   width="25.11804pt"
   height="25.451475pt"
   id="svg3420"
   viewBox="0 0 25.11804 25.451475"
   sodipodi:docname="Telas App.cdr"
   inkscape:version="1.3 (1:1.3+202307231459+0e150ed6c4)"
   xmlns:inkscape="http://www.inkscape.org/namespaces/inkscape"
   xmlns:sodipodi="http://sodipodi.sourceforge.net/DTD/sodipodi-0.dtd"
   xmlns="http://www.w3.org/2000/svg"
   xmlns:svg="http://www.w3.org/2000/svg">
  <sodipodi:namedview
     id="namedview3420"
     pagecolor="#ffffff"
     bordercolor="#000000"
     borderopacity="0.25"
     inkscape:showpageshadow="2"
     inkscape:pageopacity="0.0"
     inkscape:pagecheckerboard="0"
     inkscape:deskcolor="#d1d1d1"
     inkscape:zoom="4.7800005"
     inkscape:cx="5996.0245"
     inkscape:cy="1144.3514"
     inkscape:window-width="1300"
     inkscape:window-height="704"
     inkscape:window-x="0"
     inkscape:window-y="0"
     inkscape:window-maximized="1"
     inkscape:current-layer="svg3420"
     inkscape:document-units="pt" />
  <defs
     id="defs4" />
  <defs
     id="defs17" />
  <defs
     id="defs28" />
  <defs
     id="defs58" />
  <defs
     id="defs91" />
  <defs
     id="defs136" />
  <defs
     id="defs189" />
  <defs
     id="defs245" />
  <defs
     id="defs280" />
  <defs
     id="defs293" />
  <defs
     id="defs358" />
  <defs
     id="defs362" />
  <defs
     id="defs400" />
  <defs
     id="defs403" />
  <defs
     id="defs437" />
  <defs
     id="defs554" />
  <defs
     id="defs627" />
  <defs
     id="defs649" />
  <defs
     id="defs733" />
  <defs
     id="defs842" />
  <defs
     id="defs865" />
  <defs
     id="defs947" />
  <defs
     id="defs970" />
  <defs
     id="defs1065" />
  <defs
     id="defs1088" />
  <defs
     id="defs1207" />
  <defs
     id="defs1230" />
  <defs
     id="defs1260" />
  <defs
     id="defs1283" />
  <defs
     id="defs1317" />
  <defs
     id="defs1340" />
  <defs
     id="defs1367" />
  <defs
     id="defs1390" />
  <defs
     id="defs1437" />
  <defs
     id="defs1460" />
  <defs
     id="defs1492" />
  <defs
     id="defs1521" />
  <defs
     id="defs1544" />
  <g
     id="Layer1223"
     transform="translate(-4484.025,-1344.4418)">
    <path
       d="m 4507.4683,1352.1372 c 0.7527,1.5734 1.1746,3.3361 1.1746,5.197 0,6.6603 -5.3988,12.0591 -12.0591,12.0591 -6.6602,0 -12.059,-5.3988 -12.059,-12.0591 0,-6.6602 5.3988,-12.059 12.059,-12.059 1.5203,0 2.9745,0.2815 4.314,0.7945 m -0.1333,-1.1278 0.5385,1.3256 -1.3338,0.5499 m 6.5263,10.2534 1.8187,-0.048 m -11.467,10.2233 0.048,1.8187 m -10.2233,-11.9938 -1.8188,-0.048 m 11.7304,-9.8429 v -1.8634 m -1.1419,12.6391 -3.3053,1.8581 m 4.4472,-3.5847 v -5.262 m 0,5.262 v -5.262 z m 0,0 c 0.6105,0 1.1055,0.4949 1.1055,1.1054 0,0.6105 -0.495,1.1058 -1.1055,1.1058 -0.6105,0 -1.1058,-0.4953 -1.1058,-1.1058 0,-0.6105 0.4953,-1.1054 1.1058,-1.1054 z"
       style="fill:none;stroke:#9824f8;stroke-width:1.0001;stroke-linecap:round;stroke-linejoin:round;stroke-dasharray:none"
       id="path2348"
       inkscape:export-filename="../../Documentos/freelance/Hotel_Vivenzo/pages/reservation/home/options/access/limitado/clock.png"
       inkscape:export-xdpi="96"
       inkscape:export-ydpi="96" />
  </g>
  <defs
     id="defs3166" />
  <defs
     id="defs3378" />
  <defs
     id="defs3416" />
</svg>
