<?xml version="1.0" encoding="UTF-8" standalone="no"?>
<svg
   version="1.1"
   width="22.046631pt"
   height="22.046766pt"
   id="svg3420"
   viewBox="0 0 22.046631 22.046767"
   sodipodi:docname="Telas App.cdr"
   xmlns:inkscape="http://www.inkscape.org/namespaces/inkscape"
   xmlns:sodipodi="http://sodipodi.sourceforge.net/DTD/sodipodi-0.dtd"
   xmlns="http://www.w3.org/2000/svg"
   xmlns:svg="http://www.w3.org/2000/svg">
  <sodipodi:namedview
     id="namedview3420"
     pagecolor="#ffffff"
     bordercolor="#000000"
     borderopacity="0.25"
     inkscape:showpageshadow="2"
     inkscape:pageopacity="0.0"
     inkscape:pagecheckerboard="0"
     inkscape:deskcolor="#d1d1d1"
     inkscape:document-units="pt" />
  <defs
     id="defs4" />
  <defs
     id="defs17" />
  <defs
     id="defs28" />
  <defs
     id="defs58" />
  <defs
     id="defs91" />
  <defs
     id="defs136" />
  <defs
     id="defs189" />
  <defs
     id="defs245" />
  <defs
     id="defs280" />
  <defs
     id="defs293" />
  <defs
     id="defs358" />
  <defs
     id="defs362" />
  <defs
     id="defs400" />
  <defs
     id="defs403" />
  <defs
     id="defs437" />
  <defs
     id="defs554" />
  <defs
     id="defs627" />
  <defs
     id="defs649" />
  <defs
     id="defs733" />
  <defs
     id="defs842" />
  <defs
     id="defs865" />
  <defs
     id="defs947" />
  <defs
     id="defs970" />
  <defs
     id="defs1065" />
  <defs
     id="defs1088" />
  <defs
     id="defs1207" />
  <defs
     id="defs1230" />
  <defs
     id="defs1260" />
  <defs
     id="defs1283" />
  <defs
     id="defs1317" />
  <defs
     id="defs1340" />
  <defs
     id="defs1367" />
  <defs
     id="defs1390" />
  <defs
     id="defs1437" />
  <defs
     id="defs1460" />
  <defs
     id="defs1492" />
  <defs
     id="defs1521" />
  <defs
     id="defs1544" />
  <path
     d="m 17.022454,10.668185 h 0.3929 c 0.1959,0 0.3558,-0.1598 0.3558,-0.3554 v -3e-4 c 0,-0.1928 -0.1551,-0.3506999 -0.347,-0.3554999 v -3e-4 h -3.5561 c -0.5879,0 -1.0666,0.4784999 -1.0666,1.0666999 0,0.5882 0.4787,1.0667 1.0666,1.0667 h 5.6897 c 0.5882,0 1.0667,-0.4785 1.0667,-1.0667 0,-0.5882 -0.4785,-1.0666999 -1.0667,-1.0666999 h -0.9422 v 3e-4 h -0.1797 c -0.1959,0 -0.3558,0.1598999 -0.3558,0.3554999 v 3e-4 c 0,0.1956 0.1599,0.3554 0.3558,0.3554 h 0.3929 v -3e-4 h 0.729 c 0.1962,0 0.3555,0.1596 0.3555,0.3555 0,0.1959 -0.1593,0.3555 -0.3555,0.3555 h -5.6897 c -0.1961,0 -0.3554,-0.1596 -0.3554,-0.3555 0,-0.1959 0.1593,-0.3555 0.3554,-0.3555 h 3.1544 z m -2.0874,-4.6237999 c 0.1848,-0.0125 0.3322,-0.167 0.3322,-0.3547 v -2e-4 c 0,-0.1877 -0.1471,-0.3425 -0.3322,-0.3547 v -8e-4 h -0.015 -0.01 -0.3929 -0.6506 c -0.5879,0 -1.0666,0.4785 -1.0666,1.0667 0,0.5882 0.4787,1.0666 1.0666,1.0666 h 5.6897 c 0.5882,0 1.0667,-0.4784 1.0667,-1.0666 0,-0.5882 -0.4785,-1.0667 -1.0667,-1.0667 h -3.1328 v -3e-4 h -0.3929 c -0.1959,0 -0.3557,0.1599 -0.3557,0.3555 v 3e-4 c 0,0.1955 0.1598,0.3554 0.3557,0.3554 h 0.094 v 3e-4 h 3.4313 c 0.1962,0 0.3555,0.1596 0.3555,0.3555 0,0.1958 -0.1593,0.3554 -0.3555,0.3554 h -5.6897 c -0.1961,0 -0.3554,-0.1596 -0.3554,-0.3554 0,-0.1959 0.1593,-0.3555 0.3554,-0.3555 h 0.6506 0.3929 0.01 0.015 z m 1.7779,-6.04439996964 c -2.941,0 -5.334,2.39279996964 -5.334,5.33399996964 v 8.1784999 h -5.3336 c -3.3336,0 -6.04520001265,2.7119 -6.04520001265,6.0452 0,1.3725 1.11690001265,2.4891 2.48910001265,2.4891 h 12.981 0.5315 0.7112 c 2.9412,0 5.3339,-2.3927 5.3339,-5.334 V 5.3339851 c 0,-2.9412 -2.3927,-5.33399996964 -5.3339,-5.33399996964 z M 8.889854,14.223685 h 0.7112 v 3.2003 c 0,0.1959 -0.1593,0.3558 -0.3554,0.3558 -0.1965,0 -0.3558,-0.1599 -0.3558,-0.3558 z m -3.5557,0.053 c 0.233,-0.0311 0.4694,-0.053 0.7112,-0.053 v 1.7779 c 0,0.1959 -0.1593,0.3558 -0.3558,0.3558 -0.1961,0 -0.3554,-0.1599 -0.3554,-0.3558 z m 12.4097,5.6364 c -0.1652,0.8105 -0.8832,1.4225 -1.7421,1.4225 h -0.5315 -12.981 c -0.8583,0 -1.57660001,-0.612 -1.74190001,-1.4225 H 13.619254 v -0.7112 H 0.72955399 c 0.1522,-2.2898 1.75200001,-4.1856 3.89330001,-4.7798 v 1.5795 c 0,0.5882 0.4785,1.067 1.0667,1.067 0.5882,0 1.0667,-0.4788 1.0667,-1.067 v -1.7779 h 1.4227 v 3.2003 c 0,0.5882 0.4785,1.0667 1.0667,1.0667 0.5882,0 1.0667,-0.4785 1.0667,-1.0667 v -3.2003 h 1.4224 v 1.7779 c 0,0.5882 0.4785,1.067 1.0667,1.067 0.5881,0 1.0666,-0.4788 1.0666,-1.067 v -1.5795 c 2.1416,0.5942 3.7415,2.49 3.8937,4.7798 h -2.471 v 0.7112 z m -5.2979,-3.9115 v -1.7779 c 0.2418,0 0.4779,0.0219 0.7112,0.053 v 1.7249 c 0,0.1959 -0.1593,0.3558 -0.3557,0.3558 -0.1962,0 -0.3555,-0.1599 -0.3555,-0.3558 z m 4.2775,-0.7109 h 2.8343 c 0.1962,0 0.3555,0.1596 0.3555,0.3554 0,0.1959 -0.1593,0.3555 -0.3555,0.3555 h -2.2342 c -0.1834,-0.2509 -0.3807,-0.4912 -0.6001,-0.7109 z m 4.6122,1.4221 c 0,2.143 -1.468,3.9447 -3.4492,4.466 0.3759,-0.436 0.6044,-1.0018 0.6044,-1.6211 0,-1.0281 -0.2594,-1.9962 -0.7138,-2.8449 h 1.7807 c 0.5882,0 1.0667,-0.4785 1.0667,-1.0667 0,-0.5881 -0.4785,-1.0666 -1.0667,-1.0666 h -3.6904 c -0.974,-0.6716 -2.152,-1.067 -3.4214,-1.067 h -0.3558 V 5.3339851 c 0,-2.5489 2.0739,-4.62269997 4.6228,-4.62269997 2.5489,0 4.6227,2.07379997 4.6227,4.62269997 z"
     style="fill:#000000;fill-rule:evenodd"
     id="path2321" />
  <path
     d="m 5.165454,12.048685 c -0.131,0.1769 -0.381,0.2137 -0.5579,0.0828 -0.1768,-0.131 -0.2137,-0.381 -0.083,-0.5579 0.8776,-1.1783 0.4116,-2.1185999 -0.045,-3.0383999 -0.559,-1.1262 -1.1061,-2.2295 0.053,-3.6851 0.1369,-0.1723 0.3883,-0.201 0.5607,-0.064 0.1723,0.1369 0.201,0.3883 0.064,0.5606 -0.8431,1.0591 -0.4074,1.9381 0.038,2.8353 0.5636,1.1358 1.1393,2.2968999 -0.03,3.8666999 z"
     style="fill:#000000;fill-rule:evenodd"
     id="path2333" />
  <path
     d="m 7.171854,12.048685 c -0.131,0.1769 -0.381,0.2137 -0.5579,0.0828 -0.1769,-0.131 -0.2137,-0.381 -0.083,-0.5579 0.8776,-1.1783 0.4116,-2.1185999 -0.045,-3.0383999 -0.559,-1.1262 -1.106,-2.2295 0.053,-3.6851 0.1369,-0.1723 0.3883,-0.201 0.5607,-0.064 0.1723,0.1369 0.2009,0.3883 0.064,0.5606 -0.843,1.0591 -0.4073,1.9381 0.038,2.8353 0.5635,1.1358 1.1392,2.2968999 -0.03,3.8666999 z"
     style="fill:#000000;fill-rule:evenodd"
     id="path2334" />
  <path
     d="m 9.178154,12.048685 c -0.1309,0.1769 -0.381,0.2137 -0.5578,0.0828 -0.1769,-0.131 -0.2138,-0.381 -0.083,-0.5579 0.8776,-1.1783 0.4116,-2.1185999 -0.045,-3.0383999 -0.559,-1.1262 -1.1061,-2.2295 0.053,-3.6851 0.1369,-0.1723 0.3884,-0.201 0.5607,-0.064 0.1724,0.1369 0.201,0.3883 0.064,0.5606 -0.843,1.0591 -0.4074,1.9381 0.038,2.8353 0.5635,1.1358 1.1392,2.2968999 -0.03,3.8666999 z"
     style="fill:#000000;fill-rule:evenodd"
     id="path2335" />
  <defs
     id="defs3166" />
  <defs
     id="defs3378" />
  <defs
     id="defs3416" />
</svg>
