<?xml version="1.0" encoding="UTF-8" standalone="no"?>
<svg
   version="1.1"
   width="21.784424pt"
   height="21.782499pt"
   id="svg3420"
   viewBox="0 0 21.784424 21.7825"
   sodipodi:docname="Telas App.cdr"
   xmlns:inkscape="http://www.inkscape.org/namespaces/inkscape"
   xmlns:sodipodi="http://sodipodi.sourceforge.net/DTD/sodipodi-0.dtd"
   xmlns="http://www.w3.org/2000/svg"
   xmlns:svg="http://www.w3.org/2000/svg">
  <sodipodi:namedview
     id="namedview3420"
     pagecolor="#ffffff"
     bordercolor="#000000"
     borderopacity="0.25"
     inkscape:showpageshadow="2"
     inkscape:pageopacity="0.0"
     inkscape:pagecheckerboard="0"
     inkscape:deskcolor="#d1d1d1"
     inkscape:document-units="pt" />
  <defs
     id="defs4" />
  <defs
     id="defs17" />
  <defs
     id="defs28" />
  <defs
     id="defs58" />
  <defs
     id="defs91" />
  <defs
     id="defs136" />
  <defs
     id="defs189" />
  <defs
     id="defs245" />
  <defs
     id="defs280" />
  <defs
     id="defs293" />
  <defs
     id="defs358" />
  <defs
     id="defs362" />
  <defs
     id="defs400" />
  <defs
     id="defs403" />
  <defs
     id="defs437" />
  <defs
     id="defs554" />
  <defs
     id="defs627" />
  <defs
     id="defs649" />
  <defs
     id="defs733" />
  <defs
     id="defs842" />
  <defs
     id="defs865" />
  <defs
     id="defs947" />
  <defs
     id="defs970" />
  <defs
     id="defs1065" />
  <defs
     id="defs1088" />
  <defs
     id="defs1207" />
  <defs
     id="defs1230" />
  <defs
     id="defs1260" />
  <defs
     id="defs1283" />
  <defs
     id="defs1317" />
  <defs
     id="defs1340" />
  <defs
     id="defs1367" />
  <defs
     id="defs1390" />
  <defs
     id="defs1437" />
  <defs
     id="defs1460" />
  <defs
     id="defs1492" />
  <defs
     id="defs1521" />
  <defs
     id="defs1544" />
  <path
     d="M 1.0884193,21.782544 H 19.966219 c 1.0021,-0.001 1.8142,-0.8133 1.8154,-1.8153 v -6.1733 -0.1738 -0.21 c 0,-0.2002 -0.1633,-0.3634 -0.3635,-0.3634 v 0 c -0.2001,0 -0.3636,0.1632 -0.3636,0.3634 v 0.3838 h 8e-4 v 1.8167 h -4.3563 v -2.1781 c 0,-0.006 0,-0.0111 0,-0.017 0,-0.0253 -0.01,-0.0502 -0.015,-0.0746 0,-0.0213 -0.01,-0.0422 -0.019,-0.0626 -0.011,-0.0199 -0.024,-0.0389 -0.038,-0.0564 -0.013,-0.0196 -0.027,-0.0377 -0.043,-0.0542 -0.017,-0.0136 -0.035,-0.0258 -0.054,-0.0363 -0.021,-0.0144 -0.043,-0.0266 -0.067,-0.0365 -0.01,-0.002 -0.01,-0.007 -0.016,-0.009 l -4.1017,-1.2816 v -2.7283 h 8.7128 v 2.0503 h -8e-4 v 0.3838 c 0,0.2001 0.1635,0.3634 0.3636,0.3634 v 0 c 0.2002,0 0.3635,-0.1633 0.3635,-0.3634 v -0.1777 -0.2061 -6.7697 c 0,-0.0139 0,-0.0272 -0.01,-0.0406 0,-0.0246 -0.01,-0.0487 -0.014,-0.0725 -0.01,-0.0218 -0.017,-0.0431 -0.029,-0.0629 -0.01,-0.0202 -0.022,-0.0389 -0.037,-0.0562 -0.016,-0.019 -0.034,-0.036 -0.054,-0.0507 -0.011,-0.008 -0.018,-0.0199 -0.03,-0.0275 l -4.5482,-2.797 V 0.36314402 c 0,-0.2004 -0.1625,-0.363099996821 -0.3629,-0.363099996821 -0.2007,0 -0.3631,0.162399996821 -0.3631,0.363099996821 V 1.249244 l -4.5468,2.7978 c -0.012,0.008 -0.018,0.0193 -0.029,0.0278 -0.039,0.0281 -0.07,0.0649 -0.093,0.1069 -0.011,0.0201 -0.021,0.0408 -0.028,0.0626 -0.01,0.0236 -0.012,0.0479 -0.015,0.0726 0,0.013 -0.01,0.0261 -0.01,0.0397 v 7.2207 l -6.3608997,-1.988 c -0.3714,-0.1139 -0.7682,-0.108 -1.1359,0.0153 -3.3582,1.1297 -4.0782,3.6258 -4.1074,3.7316 0,0.0161 0,0.0326 0,0.0487 0,0.0159 -0.0100000017,0.0315 -0.0100000017,0.0474 v 7.2609 c 0,0.6015 0.48750000165,1.0891 1.08910000165,1.0891 z M 19.603119,5.445944 h -3.6303 c -0.2004,0 -0.3631,0.1627 -0.3631,0.3631 0,0.2004 0.1627,0.3631 0.3631,0.3631 h 3.6303 c 0.2007,0 0.3631,-0.1627 0.3631,-0.3631 0,-0.2004 -0.1624,-0.3631 -0.3631,-0.3631 z m -5.4453,0 h -0.7263 c -0.2001,0 -0.3628,0.1627 -0.3628,0.3631 0,0.2004 0.1627,0.3631 0.3628,0.3631 h 0.7263 c 0.2004,0 0.3631,-0.1627 0.3631,-0.3631 0,-0.2004 -0.1627,-0.3631 -0.3631,-0.3631 z m -10.5281997,6.5347 c 0,-0.2007 -0.1627,-0.3632 -0.3631,-0.3632 -0.2004,0 -0.3631,0.1625 -0.3631,0.3632 0,0.2007 0.1627,0.3628 0.3631,0.3628 0.2004,0 0.3631,-0.1621 0.3631,-0.3628 z m 3.9935,0 c 0,-0.2007 -0.1627,-0.3632 -0.3632,-0.3632 -0.2004,0 -0.3631,0.1625 -0.3631,0.3632 0,0.2007 0.1627,0.3628 0.3631,0.3628 0.2005,0 0.3632,-0.1621 0.3632,-0.3628 z m 4.3564997,5.0822 c 0,-0.2001 -0.163,-0.3628 -0.3631,-0.3628 -0.2007,0 -0.3631,0.1627 -0.3631,0.3628 0,0.2007 0.1624,0.3631 0.3631,0.3631 0.2001,0 0.3631,-0.1624 0.3631,-0.3631 z m 2.5413,-1.8147 c 0,-0.201 -0.1627,-0.3632 -0.3631,-0.3632 -0.2004,0 -0.3631,0.1622 -0.3631,0.3632 0,0.2004 0.1627,0.3625 0.3631,0.3625 0.2004,0 0.3631,-0.1621 0.3631,-0.3625 z m -5.0824997,4.356 c 0,-0.2005 -0.1627,-0.3629 -0.3631,-0.3629 -0.2005,0 -0.3632,0.1624 -0.3632,0.3629 0,0.2007 0.1627,0.3631 0.3632,0.3631 0.2004,0 0.3631,-0.1624 0.3631,-0.3631 z m -6.8979,-0.3629 c 0,-0.2007 -0.1624,-0.3628 -0.3628,-0.3628 -0.2007,0 -0.3631,0.1621 -0.3631,0.3628 0,0.2004 0.1624,0.3629 0.3631,0.3629 0.2004,0 0.3628,-0.1625 0.3628,-0.3629 z m 3.9932,-3.9931 c 0,-0.201 -0.1621,-0.3632 -0.3625,-0.3632 -0.201,0 -0.3632,0.1622 -0.3632,0.3632 0,0.2004 0.1622,0.3625 0.3632,0.3625 0.2004,0 0.3625,-0.1621 0.3625,-0.3625 z m -1.0888,-3.9938 c 0,-0.2004 -0.1624,-0.3628 -0.3631,-0.3628 -0.2004,0 -0.3628,0.1624 -0.3628,0.3628 0,0.2007 0.1624,0.3631 0.3628,0.3631 0.2007,0 0.3631,-0.1624 0.3631,-0.3631 z m 7.9865997,6.1716 c -0.8019,0 -1.4519,0.6503 -1.4519,1.4525 0,0.8016 0.65,1.4519 1.4519,1.4519 0.8022,0 1.4525,-0.6503 1.4525,-1.4519 0,-0.8022 -0.6503,-1.4525 -1.4525,-1.4525 z m 0,2.1782 c -0.4008,0 -0.7259,-0.3249 -0.7259,-0.7257 0,-0.4011 0.3251,-0.7262 0.7259,-0.7262 0.4011,0 0.7263,0.3251 0.7263,0.7262 0,0.4008 -0.3252,0.7257 -0.7263,0.7257 z m -4.3561997,-5.4454 c -0.6018,0 -1.0891,0.4876 -1.0891,1.0894 0,0.6012 0.4873,1.0887 1.0891,1.0887 0.6012,0 1.0889997,-0.4875 1.0889997,-1.0887 0,-0.6018 -0.4877997,-1.0894 -1.0889997,-1.0894 z m 0,1.4519 c -0.2005,0 -0.3632,-0.1621 -0.3632,-0.3625 0,-0.201 0.1627,-0.3632 0.3632,-0.3632 0.2004,0 0.3631,0.1622 0.3631,0.3632 0,0.2004 -0.1627,0.3625 -0.3631,0.3625 z m -3.8121,1.4522 c -0.7016,0 -1.2705,0.5689 -1.2705,1.2708 0,0.7021 0.5689,1.2705 1.2705,1.2705 0.7019,0 1.2705,-0.5684 1.2705,-1.2705 0,-0.7019 -0.5686,-1.2708 -1.2705,-1.2708 z m 0,1.8156 c -0.3005,0 -0.5442,-0.2441 -0.5442,-0.5448 0,-0.3005 0.2437,-0.5446 0.5442,-0.5446 0.3008,0 0.5448,0.2441 0.5448,0.5446 0,0.3007 -0.244,0.5448 -0.5448,0.5448 z m -2.7227,-4.3566 c -0.6015,0 -1.089,0.4876 -1.089,1.0888 0,0.6018 0.4875,1.0894 1.089,1.0894 0.6016,0 1.0891,-0.4876 1.0891,-1.0894 0,-0.6012 -0.4875,-1.0888 -1.0891,-1.0888 z m 0,1.4519 c -0.2004,0 -0.3628,-0.1621 -0.3628,-0.3631 0,-0.2004 0.1624,-0.3625 0.3628,-0.3625 0.2007,0 0.3629,0.1621 0.3629,0.3625 0,0.201 -0.1622,0.3631 -0.3629,0.3631 z m 9.4390997,5.0825 H 1.0884193 c -0.2005,0 -0.3629,-0.1624 -0.3629,-0.3628 v -6.8978 H 15.972819 v 6.8978 c 0,0.2004 -0.1621,0.3628 -0.3631,0.3628 z m 7.9866,0 h -3.3341 c 0.043,-0.1159 0.066,-0.2389 0.067,-0.3628 v -4.3566 h 4.3563 v 3.6304 c 0,0.6015 -0.4875,1.089 -1.0891,1.089 z m -3.2672,-19.1777 3.4368,2.1152 h -6.8738 z m -4.3565,2.8414 h 8.7128 v 3.6303 h -8.7128 z m -7.9908997,5.5732 c 0.222,-0.0757 0.4626,-0.0791 0.6868,-0.0105 l 8.9183997,2.787 H 0.9024193 c 0.3515,-0.7052 1.2753,-2.0449 3.4492,-2.7765 z"
     style="fill:#000000;fill-rule:evenodd"
     id="path2323" />
  <defs
     id="defs3166" />
  <defs
     id="defs3378" />
  <defs
     id="defs3416" />
</svg>
