<?xml version="1.0" encoding="UTF-8" standalone="no"?>
<svg
   version="1.1"
   width="21.931641pt"
   height="21.920835pt"
   id="svg3420"
   viewBox="0 0 21.931641 21.920836"
   sodipodi:docname="Telas App.cdr"
   xmlns:inkscape="http://www.inkscape.org/namespaces/inkscape"
   xmlns:sodipodi="http://sodipodi.sourceforge.net/DTD/sodipodi-0.dtd"
   xmlns="http://www.w3.org/2000/svg"
   xmlns:svg="http://www.w3.org/2000/svg">
  <sodipodi:namedview
     id="namedview3420"
     pagecolor="#ffffff"
     bordercolor="#000000"
     borderopacity="0.25"
     inkscape:showpageshadow="2"
     inkscape:pageopacity="0.0"
     inkscape:pagecheckerboard="0"
     inkscape:deskcolor="#d1d1d1"
     inkscape:document-units="pt" />
  <defs
     id="defs4" />
  <defs
     id="defs17" />
  <defs
     id="defs28" />
  <defs
     id="defs58" />
  <defs
     id="defs91" />
  <defs
     id="defs136" />
  <defs
     id="defs189" />
  <defs
     id="defs245" />
  <defs
     id="defs280" />
  <defs
     id="defs293" />
  <defs
     id="defs358" />
  <defs
     id="defs362" />
  <defs
     id="defs400" />
  <defs
     id="defs403" />
  <defs
     id="defs437" />
  <defs
     id="defs554" />
  <defs
     id="defs627" />
  <defs
     id="defs649" />
  <defs
     id="defs733" />
  <defs
     id="defs842" />
  <defs
     id="defs865" />
  <defs
     id="defs947" />
  <defs
     id="defs970" />
  <defs
     id="defs1065" />
  <defs
     id="defs1088" />
  <defs
     id="defs1207" />
  <defs
     id="defs1230" />
  <defs
     id="defs1260" />
  <defs
     id="defs1283" />
  <defs
     id="defs1317" />
  <defs
     id="defs1340" />
  <defs
     id="defs1367" />
  <defs
     id="defs1390" />
  <defs
     id="defs1437" />
  <defs
     id="defs1460" />
  <defs
     id="defs1492" />
  <defs
     id="defs1521" />
  <defs
     id="defs1544" />
  <g
     id="Layer1221"
     transform="translate(-3877.7445,-667.89206)">
    <g
       id="Layer1222">
      <path
         d="m 3898.1055,689.8128 c 0.8661,0 1.5708,-0.7047 1.5708,-1.5708 v -4.0279 c 0,-0.8662 -0.7046,-1.5708 -1.5708,-1.5708 h -1.4693 v -1.8777 c 0,-1.2964 -0.2653,-2.5551 -0.7886,-3.7413 -0.2458,-0.5571 -0.4328,-1.142 -0.5559,-1.7385 l -0.2132,-1.4414 c -0.026,-0.1754 -0.1893,-0.2964 -0.3647,-0.2706 -0.1754,0.0259 -0.2966,0.1892 -0.2706,0.3646 l 0.2145,1.4503 c 9e-4,0.006 0,0.0117 0,0.0175 0.1323,0.6442 0.3339,1.2758 0.5992,1.8774 0.2387,0.541 0.4194,1.0984 0.5419,1.668 l -5.5011,10e-5 c 0.1225,-0.5697 0.3032,-1.1271 0.5418,-1.6681 0.2654,-0.6015 0.4671,-1.2331 0.5993,-1.8773 0,-0.006 0,-0.0117 0,-0.0176 l 0.8212,-5.5525 h 1.5703 l 0.4016,2.7161 c 0.024,0.1595 0.1607,0.2742 0.3172,0.2742 0.016,0 0.032,-10e-4 0.048,-0.004 0.1754,-0.026 0.2966,-0.1892 0.2706,-0.3647 l -0.392,-2.6509 c 0.2111,-0.0717 0.3637,-0.2714 0.3637,-0.5065 v -0.5067 c 0,-0.4972 -0.4045,-0.9016 -0.9016,-0.9016 h -1.7842 c -0.4971,0 -0.9016,0.4044 -0.9016,0.9016 v 0.5068 c 0,0.235 0.1525,0.4347 0.3637,0.5064 l -0.8103,5.4784 c -0.1231,0.5966 -0.3101,1.1815 -0.556,1.7385 -0.5232,1.1861 -0.7885,2.4449 -0.7885,3.7413 v 1.9505 c -0.6126,0.0769 -1.214,0.2154 -1.8005,0.4138 v -2.3643 c 0,-1.2964 -0.2654,-2.5552 -0.7887,-3.7413 -0.2458,-0.557 -0.4328,-1.1419 -0.5559,-1.7385 l -0.8102,-5.4784 c 0.2111,-0.0717 0.3637,-0.2714 0.3637,-0.5064 v -0.5068 c -10e-5,-0.4972 -0.4046,-0.9016 -0.9017,-0.9016 h -1.7842 c -0.4971,0 -0.9016,0.4044 -0.9016,0.9016 v 0.5068 c 0,0.235 0.1526,0.4348 0.3637,0.5064 l -0.5241,3.5436 c -0.026,0.1754 0.095,0.3387 0.2706,0.3647 0.016,0.002 0.032,0.004 0.047,0.004 0.1565,0 0.2936,-0.1147 0.3172,-0.2742 l 0.5338,-3.6088 h 1.5702 l 0.8212,5.5525 c 8e-4,0.006 0,0.0118 0,0.0176 0.1323,0.6442 0.3339,1.2758 0.5992,1.8773 0.2387,0.541 0.4194,1.0984 0.5419,1.6681 h -5.501 c 0.1225,-0.5697 0.3032,-1.127 0.5419,-1.6681 0.2653,-0.6015 0.4669,-1.2331 0.5992,-1.8773 0,-0.006 0,-0.0117 0,-0.0176 l 0.083,-0.5593 c 0.026,-0.1755 -0.095,-0.3387 -0.2706,-0.3647 -0.1753,-0.0258 -0.3387,0.0953 -0.3646,0.2707 l -0.081,0.5504 c -0.1231,0.5965 -0.3101,1.1814 -0.5559,1.7386 -0.5233,1.1861 -0.7886,2.4448 -0.7886,3.7412 v 3.91 l -0.8977,0.1327 c -0.1329,-0.2292 -0.3799,-0.3736 -0.6482,-0.3736 h -0.4453 c -0.4131,0 -0.7492,0.3361 -0.7492,0.7492 v 2.0889 c 0,0.4131 0.3361,0.7492 0.7492,0.7492 h 0.4453 c 0.2694,0 0.517,-0.1454 0.6496,-0.3759 l 0.8963,0.1328 v 0.4632 c 0,0.8661 0.7047,1.5708 1.5709,1.5708 h 4.0279 c 0.4921,0 0.9448,-0.2268 1.2391,-0.6059 0.552,0.2092 1.1265,0.3654 1.7099,0.467 0.024,0.007 0.048,0.0111 0.074,0.0125 0.5004,0.0831 1.0069,0.1262 1.511,0.1262 h 7.4765 z m -6.2056,-21.0186 c 0,-0.1431 0.1163,-0.2594 0.2594,-0.2594 h 1.7842 c 0.1431,0 0.2595,0.1163 0.2595,0.2594 v 0.3997 h -2.3031 z m -8.9702,0 c 0,-0.1431 0.1164,-0.2594 0.2594,-0.2594 h 1.7843 c 0.143,0 0.2594,0.1163 0.2594,0.2594 v 0.3997 h -2.3031 z m 9.2816,18.4298 c -0.2294,-0.2798 -0.3558,-0.6334 -0.3558,-0.9959 0,-0.3675 0.123,-0.7117 0.3558,-0.9954 0.1071,-0.1305 0.166,-0.298 0.166,-0.4719 v -1.4753 h 2.0991 v 1.4753 c 0,0.1737 0.059,0.3413 0.1661,0.4719 0.2328,0.2837 0.3558,0.6279 0.3558,0.9954 0,0.3625 -0.1263,0.7161 -0.3558,0.9959 -0.1071,0.1304 -0.1661,0.298 -0.1661,0.4719 v 1.4746 h -2.0991 v -1.4746 c 0,-0.1738 -0.059,-0.3414 -0.166,-0.4719 z m 2.9073,0.4719 c 0,-0.0253 0.01,-0.0488 0.02,-0.0646 0.3234,-0.3943 0.5016,-0.8926 0.5016,-1.4032 0,-0.5104 -0.1782,-1.0086 -0.5016,-1.4027 -0.013,-0.0158 -0.02,-0.0393 -0.02,-0.0646 v -1.4753 h 1.1948 c 6e-4,0 0,1e-4 0,1e-4 5e-4,0 0,-1e-4 0,-1e-4 h 1.0797 v 5.8851 h -2.2778 v -1.4747 z m -5.0099,-6.9303 c 0,-0.3948 0.027,-0.7857 0.08,-1.1718 h 5.7261 c 0.053,0.3861 0.08,0.777 0.08,1.1718 v 1.8776 h -5.365 c -0.1741,0 -0.3475,0.005 -0.5202,0.0148 v -1.8924 z m -8.9701,0 c 0,-0.3948 0.027,-0.7857 0.08,-1.1718 h 5.7261 c 0.053,0.3861 0.08,0.777 0.08,1.1718 v 2.6083 c -0.045,0.0191 -0.091,0.038 -0.1362,0.0579 -0.5578,0.2461 -1.1427,0.4331 -1.7385,0.5559 l -4.0106,0.5929 z m 0.9287,8.4051 c -0.5121,0 -0.9287,-0.4167 -0.9287,-0.9287 v -0.368 l 4.0105,0.5944 c 0.5304,0.1095 1.0517,0.2698 1.5527,0.4768 -0.1655,0.1431 -0.3789,0.2255 -0.6066,0.2255 z m 7.3899,-0.0819 v -2.6479 c 0,-0.1774 -0.1437,-0.3211 -0.3211,-0.3211 -0.1773,0 -0.3211,0.1437 -0.3211,0.3211 v 2.5348 c -0.5734,-0.1233 -1.1346,-0.3038 -1.6682,-0.5391 -0.6018,-0.2652 -1.2333,-0.4668 -1.8771,-0.5991 -0.01,-10e-4 -0.012,-0.002 -0.018,-0.003 l -5.6344,-0.835 c -0.026,-0.004 -0.051,-0.006 -0.076,-0.006 -0.2085,0 -0.4043,0.1249 -0.493,0.3225 -0.013,0.0293 -0.047,0.0634 -0.098,0.0634 h -0.4452 c -0.059,0 -0.107,-0.048 -0.107,-0.107 v -2.0889 c 0,-0.059 0.048,-0.107 0.107,-0.107 h 0.4453 c 0.051,0 0.084,0.034 0.098,0.0631 0.1014,0.2236 0.3301,0.3501 0.5683,0.3149 l 5.6356,-0.8331 c 0.01,-9e-4 0.012,-0.002 0.017,-0.003 0.6434,-0.1319 1.2751,-0.3335 1.8773,-0.5992 0.5412,-0.2386 1.0986,-0.4192 1.6682,-0.5417 v 1.5637 c 0,0.1774 0.1437,0.3211 0.3211,0.3211 0.1773,0 0.3211,-0.1437 0.3211,-0.3211 v -1.6763 c 0.3862,-0.0526 0.7771,-0.0796 1.1718,-0.0796 h 1.1061 v 1.4753 c 0,0.0253 -0.01,0.0488 -0.02,0.0645 -0.3235,0.3943 -0.5016,0.8925 -0.5016,1.4028 0,0.5106 0.1781,1.0089 0.5016,1.4033 0.013,0.0157 0.02,0.0392 0.02,0.0645 v 1.4746 l -1.1061,10e-5 c -0.3905,0 -0.7826,-0.028 -1.1717,-0.0818 z m 9.5769,-0.8468 c 0,0.512 -0.4165,0.9286 -0.9286,0.9286 h -0.067 v -5.8851 h 0.067 c 0.512,0 0.9286,0.4166 0.9286,0.9286 z"
         style="fill:#000000;fill-rule:evenodd"
         id="path2322" />
    </g>
  </g>
  <defs
     id="defs3166" />
  <defs
     id="defs3378" />
  <defs
     id="defs3416" />
</svg>
