<?xml version="1.0" encoding="UTF-8" standalone="no"?>
<svg
   version="1.1"
   width="21.468384pt"
   height="21.465271pt"
   id="svg3420"
   viewBox="0 0 21.468384 21.465271"
   sodipodi:docname="Telas App.cdr"
   xmlns:inkscape="http://www.inkscape.org/namespaces/inkscape"
   xmlns:sodipodi="http://sodipodi.sourceforge.net/DTD/sodipodi-0.dtd"
   xmlns="http://www.w3.org/2000/svg"
   xmlns:svg="http://www.w3.org/2000/svg">
  <sodipodi:namedview
     id="namedview3420"
     pagecolor="#ffffff"
     bordercolor="#000000"
     borderopacity="0.25"
     inkscape:showpageshadow="2"
     inkscape:pageopacity="0.0"
     inkscape:pagecheckerboard="0"
     inkscape:deskcolor="#d1d1d1"
     inkscape:document-units="pt" />
  <defs
     id="defs4" />
  <defs
     id="defs17" />
  <defs
     id="defs28" />
  <defs
     id="defs58" />
  <defs
     id="defs91" />
  <defs
     id="defs136" />
  <defs
     id="defs189" />
  <defs
     id="defs245" />
  <defs
     id="defs280" />
  <defs
     id="defs293" />
  <defs
     id="defs358" />
  <defs
     id="defs362" />
  <defs
     id="defs400" />
  <defs
     id="defs403" />
  <defs
     id="defs437" />
  <defs
     id="defs554" />
  <defs
     id="defs627" />
  <defs
     id="defs649" />
  <defs
     id="defs733" />
  <defs
     id="defs842" />
  <defs
     id="defs865" />
  <defs
     id="defs947" />
  <defs
     id="defs970" />
  <defs
     id="defs1065" />
  <defs
     id="defs1088" />
  <defs
     id="defs1207" />
  <defs
     id="defs1230" />
  <defs
     id="defs1260" />
  <defs
     id="defs1283" />
  <defs
     id="defs1317" />
  <defs
     id="defs1340" />
  <defs
     id="defs1367" />
  <defs
     id="defs1390" />
  <defs
     id="defs1437" />
  <defs
     id="defs1460" />
  <defs
     id="defs1492" />
  <defs
     id="defs1521" />
  <defs
     id="defs1544" />
  <path
     d="m 18.459722,18.560892 c -1.5483,1.4106 -3.5289,2.1875 -5.5769,2.1875 -1.188,-0.004 -2.3607,-0.2658 -3.4376003,-0.7673 0.035,-0.0547 0.068,-0.1108 0.1006,-0.1687 0.088,-0.1576 0.1704,-0.318 0.2472,-0.4816 0.9658003,0.4584 2.0208003,0.6982 3.0898003,0.7022 1.7779,0 3.5152,-0.6713 4.8917,-1.8904 1.2096,-1.0713 2.001,-2.4523 2.2082,-3.8333 h 0.7563 c -0.1137,1.4913 -0.9303,3.0228 -2.2793,4.2516 z m -9.5389003,0.9029 c -0.4536,0.813 -1.2325,1.2846 -2.0509,1.2846 -0.1922,0 -0.3838,-0.026 -0.5695,-0.0771 l -0.5856,-0.2094 c -0.2228,-0.0794 -0.4657,-0.0794 -0.6882,0 l -0.5863,0.2097 c -1.0105,0.2767 -2.0624,-0.2072 -2.6206,-1.2075 -0.3155,-0.5675 -0.5525,-1.1741 -0.7052,-1.8034 -0.088,-0.3141 -0.27870002,-0.3773 -0.39690002,-0.3773 -0.1264,0 -0.3535,0.1026 -0.3373,0.3773 0.1652,0.752 0.4396,1.4771 0.81490002,2.1517 0.584,1.0466 1.5974,1.6529 2.6694,1.6529 0.2639,-3e-4 0.5264,-0.0368 0.7804,-0.108 0.01,-0.002 0.016,-0.005 0.024,-0.008 l 0.5984,-0.2143 c 0.067,-0.0241 0.1395,-0.0241 0.2061,0 l 0.5984,0.2143 c 0.01,0.002 0.016,0.005 0.024,0.008 0.254,0.0712 0.5167,0.1077 0.7806,0.108 0.7841,0 1.5364,-0.3248 2.113,-0.9085 1.2129003,0.5925 2.5438003,0.9026 3.8934003,0.9071 2.2269,0 4.3784,-0.843 6.059,-2.374 1.6059,-1.463 2.5265,-3.3358 2.5265,-5.1384 0,-0.1975 -0.1601,-0.3577 -0.3577,-0.3577 h -1.7886 v -2.1464 c 5e-4,-1.6886004 -0.7025,-3.3009004 -1.9404,-4.4493004 0.4831,-1.2923 1.7998,-2.4205 1.8136,-2.4326 0.1506,-0.1279 0.1693,-0.3535 0.041,-0.5043 -0.068,-0.08 -0.1675,-0.1259 -0.2727,-0.1262 -1.034,0 -1.9332,0.203 -2.6872,0.6047 0.1423,-0.2387 0.3002,-0.468 0.4722,-0.686 0.3056,-0.3884 0.6452,-0.7487 1.0151,-1.0766 0.1508,-0.1276 0.1695,-0.3532 0.042,-0.5043 -0.068,-0.0799 -0.1678,-0.1264 -0.273,-0.1264 -0.9669,0 -1.8201,0.18 -2.5464,0.5349 -0.1,-0.7481 -0.4393,-2.06990001 -1.5865,-2.64360001 -0.1007,-0.0502 -0.2191,-0.0502 -0.3201,0 -1.1454,0.5729 -1.4853,1.89240001 -1.5859,2.64100001 -0.724,-0.3538 -1.5755003,-0.5323 -2.5467003,-0.5323 -0.1976,0 -0.3577,0.1601 -0.3574,0.358 0,0.1049 0.046,0.2046 0.1261,0.2724 0.3702,0.3277 0.7098,0.6882 1.0154,1.0766 0.172,0.2177 0.3291003,0.4462 0.4714003,0.6846 -0.7526003,-0.4006 -1.6509003,-0.603 -2.6864003,-0.603 -0.1976,3e-4 -0.3577,0.1605 -0.3575,0.358 0,0.1049 0.046,0.2047 0.1262,0.2725 0.014,0.0119 1.3306,1.1403 1.8136,2.4326 -1.2376,1.1484 -1.9409,2.7607 -1.94,4.4493004 v 0.0411 c -0.3949,0.0748 -0.9171,0.2461 -1.196,0.4553 -0.04,0.0297 -0.081,0.0564 -0.1247,0.0799 0.094,-0.8615 0.2608,-1.7402 0.5451,-2.1665004 0.1117,-0.163 0.07,-0.3858 -0.093,-0.4975 -0.1627,-0.1117 -0.3855,-0.07 -0.4972,0.093 0,0.002 0,0.005 -0.01,0.008 -0.324,0.4864 -0.5519,1.3782004 -0.6777,2.6493004 -0.1199,-0.0346 -0.2328,-0.0904 -0.3325,-0.1656 -0.3776,-0.2834 -1.2005,-0.4966 -1.5497,-0.4966 -0.9355,0 -1.7793,0.3813 -2.37630002,1.0738 -0.6659,0.7721 -0.9584,1.8623 -0.8082,3.0019 0.046,0.2015 0.1914,0.3234 0.3836,0.3234 0.178,0.005 0.3299,-0.129 0.339,-0.3234 0,-0.01 0,-0.0196 0,-0.0292 -0.1431,-0.961 0.087,-1.874 0.63190002,-2.5053 0.4592,-0.5326 1.1307,-0.8351 1.8343,-0.8257 0.227,0 0.8917,0.1814 1.1202,0.3532 0.2078,0.1567 0.4487,0.2642 0.7041,0.3135 -0.017,0.2849 -0.027,0.5352 -0.033,0.7268 -0.309,-0.0695 -0.4649,-0.2115 -0.4734,-0.2194 v 0.004 c -0.1391,-0.1405 -0.3656,-0.1417 -0.5059,-0.002 -0.1404,0.1389 -0.1415,0.3654 0,0.5057 v 0.003 c 0.048,0.0479 0.4873,0.4624 1.3261,0.4624 0.8393,0 1.279,-0.4153 1.326,-0.4626 0.1398,-0.1398 0.1398,-0.3663 0,-0.5058 -0.1394,-0.1397 -0.3662,-0.1397 -0.5057,0 0,0.002 -0.1547,0.1406 -0.4561,0.2118 0.01,-0.2163 0.017,-0.4691 0.035,-0.7407 0.2256,-0.0556 0.4374,-0.1562 0.6228,-0.2959 0.2284,-0.1718 0.8929,-0.3535 1.1202,-0.3535 0.7036,-0.009 1.3748,0.2928 1.8343,0.8254 0.5446,0.6319 0.7744003,1.5449 0.6316,2.5053 l -0.2234,1.5015 c -0.1261,0.8668 -0.409,1.7033 -0.8345,2.469 z m -0.6562,-10.0239004 0.409,0.3963 -0.7214,0.7007004 c 0.065,-0.3759 0.1689,-0.7435004 0.3124,-1.0970004 z m 1.7322,-2.264 0.7081003,0.6877 -1.5179003,1.474 -0.5919,-0.5735 c 0.3577,-0.6165 0.8342,-1.1565 1.4017,-1.5882 z m -1.5395,-2.4571 c 0.9009,0.1381 1.6438003,0.4861 2.2201003,1.0386 0.01,0.0556 0.015,0.1111 0.02,0.1667 -0.3586,0.1655 -0.7002003,0.3662 -1.0199003,0.5981 -0.3136,-0.7135 -0.8091,-1.3504 -1.2201,-1.8034 z m 1.4321,-1.7878 c 1.9820003,0.3078 2.8074003,1.5727 3.1442003,2.4389 -0.5599,0.0185 -1.1149,0.1145 -1.6481,0.2858 -0.011,-0.0729 -0.025,-0.1449 -0.041,-0.2169 l 0.012,-0.0116 c -0.01,-0.007 -0.013,-0.0136 -0.02,-0.0207 -0.2322,-0.9814 -0.9117,-1.8848 -1.4474003,-2.4755 z M 13.240522,0.76929159 c 0.8867,0.57740001 1.0409,1.90200001 1.0675,2.32070001 -0.4209,0.309 -0.7826,0.6914 -1.0678,1.1288 -0.1644,-0.2512 -0.3537,-0.4847 -0.5652,-0.6973 -0.1559,-0.1568 -0.3237,-0.3014 -0.502,-0.4323 0.027,-0.4198 0.1817,-1.7428 1.0675,-2.31990001 z m 3.3514,2.16110001 c -0.5808,0.6401 -1.3303,1.6484 -1.4964,2.725 -0.4209,-0.1352 -0.8555,-0.2237 -1.2957,-0.2639 -0.042,-0.1304 -0.096,-0.2775 -0.1639,-0.436 0.4394,-0.8413 1.2949,-1.7685 2.956,-2.0251 z m 1.4315,1.7884 c -0.411,0.453 -0.9065,1.0899 -1.2197,1.8034 -0.3198,-0.2321 -0.6617,-0.4326 -1.0202,-0.5984 0,-0.0558 0.011,-0.1114 0.02,-0.1669 0.5763,-0.552 1.3201,-0.8995 2.2198,-1.0378 z m -0.1332,4.0521 -0.5848,0.567 -1.5194,-1.4758 0.703,-0.6825 c 0.5672,0.4325 1.0437,0.9737 1.4012,1.5916 z m 0.6364,1.7530004 -0.7076,-0.6871004 0.4011,-0.3887 c 0.1395,0.3467 0.2427,0.7073004 0.3065,1.0758004 z m 0.08,1.4873 -1.3025,1.2614 -1.5132,-1.4692 1.5146,-1.4683 1.3011,1.2637 z m -0.6055,1.5826 0.6055,-0.5865 v 0.5865 z m -7.5379,3.5065 0.2234,-1.5016 c 0.065,-0.4274 0.065,-0.862 0,-1.2894 h 8.57 c -0.2061,1.1812 -0.9046,2.3646 -1.9582,3.2978 -1.2455,1.103 -2.8142,1.7104 -4.4172,1.7104 -0.9749,-0.004 -1.9367,-0.2253 -2.8151,-0.6477 0.184,-0.5088 0.316,-1.0346 0.3954,-1.5695 z m 0.2393,-5.2991 -0.7810003,0.7588 c -0.011,-0.013 -0.021,-0.0261 -0.033,-0.0388 -0.4819,-0.5627 -1.1517,-0.9312 -1.885,-1.0372 l 1.1837,-1.1498 z m 0.5162,-3.4393004 1.5128,1.4689 -1.5154,1.4718004 -1.5148003,-1.4670004 z m 0,-0.9972 -0.6101,-0.5919 c 0.58,-0.3283 1.2167,-0.5445 1.8766,-0.6375 z m 3.5401,0.4974 -1.5137,1.4704 -1.5131,-1.4689 1.5143,-1.4704 z m -0.7497,-1.7254 c 0.657,0.0947 1.2909,0.3115 1.8683,0.6389 l -0.6049,0.5879 z m -0.2506,3.6941 1.514,-1.47 1.5191,1.4757 -1.5146,1.4686004 z m 1.5182,2.4707004 1.3309,1.2923 h -2.6632 z m -2.7235,1.2923 h -2.0455 c -0.052,-0.146 -0.1139,-0.2886 -0.1845,-0.4266 l 0.8935,-0.8677 z m -0.8229,-1.7929 1.5148,-1.4715 1.5183,1.4738 -1.5146,1.4689 z"
     style="fill:#000000;fill-rule:evenodd"
     id="path2324" />
  <defs
     id="defs3166" />
  <defs
     id="defs3378" />
  <defs
     id="defs3416" />
</svg>
