<?xml version="1.0" encoding="UTF-8" standalone="no"?>
<svg
   version="1.1"
   width="30.1604pt"
   height="21.90756pt"
   id="svg3420"
   viewBox="0 0 30.1604 21.907561"
   sodipodi:docname="Telas App.cdr"
   inkscape:version="1.3 (1:1.3+202307231459+0e150ed6c4)"
   xmlns:inkscape="http://www.inkscape.org/namespaces/inkscape"
   xmlns:sodipodi="http://sodipodi.sourceforge.net/DTD/sodipodi-0.dtd"
   xmlns="http://www.w3.org/2000/svg"
   xmlns:svg="http://www.w3.org/2000/svg">
  <sodipodi:namedview
     id="namedview3420"
     pagecolor="#ffffff"
     bordercolor="#000000"
     borderopacity="0.25"
     inkscape:showpageshadow="2"
     inkscape:pageopacity="0.0"
     inkscape:pagecheckerboard="0"
     inkscape:deskcolor="#d1d1d1"
     inkscape:zoom="4.7800005"
     inkscape:cx="5996.0245"
     inkscape:cy="1144.3514"
     inkscape:window-width="1300"
     inkscape:window-height="704"
     inkscape:window-x="0"
     inkscape:window-y="0"
     inkscape:window-maximized="1"
     inkscape:current-layer="svg3420"
     inkscape:document-units="pt" />
  <defs
     id="defs4" />
  <defs
     id="defs17" />
  <defs
     id="defs28" />
  <defs
     id="defs58" />
  <defs
     id="defs91" />
  <defs
     id="defs136" />
  <defs
     id="defs189" />
  <defs
     id="defs245" />
  <defs
     id="defs280" />
  <defs
     id="defs293" />
  <defs
     id="defs358" />
  <defs
     id="defs362" />
  <defs
     id="defs400" />
  <defs
     id="defs403" />
  <defs
     id="defs437" />
  <defs
     id="defs554" />
  <defs
     id="defs627" />
  <defs
     id="defs649" />
  <defs
     id="defs733" />
  <defs
     id="defs842" />
  <defs
     id="defs865" />
  <defs
     id="defs947" />
  <defs
     id="defs970" />
  <defs
     id="defs1065" />
  <defs
     id="defs1088" />
  <defs
     id="defs1207" />
  <defs
     id="defs1230" />
  <defs
     id="defs1260" />
  <defs
     id="defs1283" />
  <defs
     id="defs1317" />
  <defs
     id="defs1340" />
  <defs
     id="defs1367" />
  <defs
     id="defs1390" />
  <defs
     id="defs1437" />
  <defs
     id="defs1460" />
  <defs
     id="defs1492" />
  <defs
     id="defs1521" />
  <defs
     id="defs1544" />
  <g
     id="Layer1182"
     transform="translate(-8741.092,-1009.3977)">
    <path
       d="m 8741.092,1018.7174 v 4.683 c 0,0.1676 0.1358,0.3034 0.3034,0.3034 h 29.5534 c 0.1676,0 0.3034,-0.1358 0.3034,-0.3034 v -4.683 l -14.3474,-6.5512 z"
       style="fill:#6c00c4;fill-rule:evenodd"
       id="path1923" />
    <path
       d="m 8745.0152,1021.8441 v 1.8597 h 22.3138 v -1.8597 c 0,-0.1676 -0.1358,-0.3034 -0.3034,-0.3034 h -21.707 c -0.1675,0 -0.3034,0.1358 -0.3034,0.3034 z"
       style="fill:#ae4cff;fill-rule:evenodd"
       id="path1924" />
    <path
       d="m 8771.2522,1009.7011 v 9.0163 c 0,0 -4.321,0 -5.9956,0 -0.8163,0 -2.347,-0.7896 -3.1253,-1.0359 -2.8408,-0.8988 -9.0776,-0.8988 -11.9184,0 -0.7783,0.2463 -2.309,1.0359 -3.1253,1.0359 -1.9876,0 -5.9956,0 -5.9956,0 v -9.0163 c 0,-0.1676 0.1358,-0.3035 0.3034,-0.3035 l 29.5534,10e-5 c 0.1676,0 0.3034,0.1358 0.3034,0.3034 z"
       style="fill:#900dfc;fill-rule:evenodd"
       id="path1925" />
    <path
       d="m 8765.8813,1016.756 h 2.9226 c 0.1676,0 0.3035,-0.1359 0.3035,-0.3035 v -1.7666 c 0,-0.1676 -0.1359,-0.3034 -0.3035,-0.3034 h -2.9226 c -0.1675,0 -0.3034,0.1358 -0.3034,0.3034 v 1.7667 c 0,0.1675 0.1358,0.3034 0.3034,0.3034 z"
       style="fill:#b3b3b3;fill-rule:evenodd"
       id="path1926" />
    <path
       d="m 8749.2632,1014.4887 -0.444,-0.6739 0.444,-0.6736 c 0.1367,-0.2075 0.079,-0.4865 -0.1281,-0.6233 -0.2075,-0.1367 -0.4864,-0.079 -0.6233,0.1281 l -0.4738,0.7188 h -0.5165 c -0.022,-0.029 -0.045,-0.057 -0.071,-0.083 l -0.8502,-0.8502 c -0.026,-0.026 -0.054,-0.049 -0.083,-0.071 v -0.5166 l 0.7189,-0.4736 c 0.2075,-0.1368 0.2649,-0.4158 0.1282,-0.6233 -0.1367,-0.2076 -0.4158,-0.2649 -0.6233,-0.1283 l -0.6738,0.4439 -0.6738,-0.4439 c -0.2076,-0.1368 -0.4865,-0.079 -0.6233,0.1282 -0.1367,0.2075 -0.079,0.4866 0.1282,0.6233 l 0.7189,0.4737 v 0.5166 c -0.029,0.022 -0.057,0.044 -0.083,0.071 l -0.8502,0.8502 c -0.026,0.026 -0.049,0.054 -0.07,0.083 h -0.5165 l -0.4738,-0.7188 c -0.1368,-0.2075 -0.4159,-0.2648 -0.6233,-0.1281 -0.2075,0.1368 -0.2648,0.4159 -0.1281,0.6233 l 0.444,0.6736 -0.444,0.6739 c -0.1367,0.2076 -0.079,0.4866 0.1282,0.6233 0.076,0.05 0.1621,0.074 0.2471,0.074 0.1462,0 0.2897,-0.071 0.3762,-0.2025 l 0.4738,-0.7191 h 0.5162 c 0.022,0.029 0.045,0.057 0.071,0.083 l 0.8502,0.8501 c 0.026,0.026 0.054,0.049 0.083,0.07 v 0.5166 l -0.7189,0.4737 c -0.2075,0.1367 -0.2649,0.4157 -0.1282,0.6233 0.1367,0.2074 0.4158,0.2648 0.6233,0.1281 l 0.6738,-0.4439 0.6738,0.4439 c 0.076,0.05 0.1621,0.074 0.2471,0.074 0.1462,0 0.2897,-0.071 0.3762,-0.2025 0.1367,-0.2074 0.079,-0.4865 -0.1282,-0.6233 l -0.719,-0.4736 v -0.5166 c 0.029,-0.021 0.057,-0.044 0.083,-0.07 l 0.8501,-0.8501 c 0.026,-0.026 0.049,-0.054 0.071,-0.083 h 0.5162 l 0.4737,0.7191 c 0.087,0.1313 0.2299,0.2025 0.3762,0.2025 0.085,0 0.1709,-0.024 0.2471,-0.074 0.2075,-0.1367 0.2649,-0.4157 0.1282,-0.6233 z m -3.1951,-0.031 -0.643,-0.6429 0.643,-0.643 0.643,0.643 z"
       style="fill:#b3b3b3;fill-rule:evenodd"
       id="path1927" />
    <path
       d="m 8751.63,1031.3052 c -0.1018,0 -0.2043,-0.034 -0.289,-0.1038 -0.194,-0.1598 -0.2218,-0.4466 -0.062,-0.6407 0.061,-0.074 0.1247,-0.1342 0.1807,-0.187 0.1305,-0.1232 0.1347,-0.1374 0.1347,-0.1924 0,-0.055 0,-0.069 -0.1347,-0.1922 -0.1574,-0.1485 -0.4205,-0.3966 -0.4205,-0.8547 0,-0.4581 0.2632,-0.7062 0.4205,-0.8545 0.1305,-0.1231 0.1347,-0.1373 0.1347,-0.1922 0,-0.055 0,-0.069 -0.1347,-0.1922 -0.1573,-0.1483 -0.4205,-0.3964 -0.4205,-0.8545 0,-0.4581 0.2633,-0.7062 0.4206,-0.8545 0.051,-0.048 0.099,-0.093 0.12,-0.1273 0.1323,-0.2137 0.4127,-0.2798 0.6266,-0.1476 0.2137,0.1323 0.2798,0.4128 0.1476,0.6265 -0.084,0.1356 -0.1871,0.2328 -0.2699,0.3109 -0.1305,0.123 -0.1346,0.1371 -0.1346,0.192 0,0.055 0,0.069 0.1346,0.1922 0.1573,0.1483 0.4205,0.3964 0.4205,0.8545 0,0.4581 -0.2632,0.7062 -0.4205,0.8545 -0.1305,0.1231 -0.1346,0.1373 -0.1346,0.1922 0,0.055 0,0.069 0.1346,0.1923 0.1573,0.1483 0.4205,0.3964 0.4205,0.8546 0,0.4582 -0.2632,0.7063 -0.4204,0.8546 -0.04,0.038 -0.078,0.073 -0.1024,0.1034 -0.09,0.1093 -0.2204,0.1659 -0.3517,0.1659 z"
       style="fill:#b3b3b3;fill-rule:evenodd"
       id="path1928" />
    <path
       d="m 8756.0303,1031.3052 c -0.1019,0 -0.2043,-0.034 -0.289,-0.1038 -0.194,-0.1598 -0.2218,-0.4466 -0.062,-0.6407 0.061,-0.074 0.1247,-0.1342 0.1807,-0.187 0.1305,-0.1232 0.1346,-0.1374 0.1346,-0.1924 0,-0.055 0,-0.069 -0.1346,-0.1922 -0.1574,-0.1484 -0.4205,-0.3965 -0.4205,-0.8547 0,-0.4581 0.2633,-0.7063 0.4206,-0.8545 0.1305,-0.1231 0.1346,-0.1373 0.1346,-0.1922 0,-0.055 0,-0.069 -0.1346,-0.1922 -0.1573,-0.1483 -0.4206,-0.3964 -0.4206,-0.8546 0,-0.458 0.2633,-0.7061 0.4206,-0.8544 0.051,-0.048 0.099,-0.093 0.12,-0.1272 0.1322,-0.2139 0.4126,-0.28 0.6265,-0.1477 0.2137,0.1322 0.2798,0.4127 0.1476,0.6265 -0.084,0.1356 -0.187,0.2328 -0.2698,0.3109 -0.1305,0.123 -0.1346,0.1372 -0.1346,0.192 0,0.055 0,0.069 0.1346,0.1922 0.1573,0.1482 0.4206,0.3964 0.4206,0.8545 0,0.4581 -0.2633,0.7063 -0.4206,0.8546 -0.1305,0.123 -0.1346,0.1373 -0.1346,0.1922 0,0.055 0,0.069 0.1346,0.1923 0.1573,0.1483 0.4206,0.3964 0.4206,0.8546 0,0.4582 -0.2632,0.7063 -0.4205,0.8547 -0.04,0.038 -0.078,0.073 -0.1024,0.1033 -0.09,0.1092 -0.2204,0.1657 -0.3517,0.1657 z"
       style="fill:#b3b3b3;fill-rule:evenodd"
       id="path1929" />
    <path
       d="m 8760.4306,1031.3052 c -0.1018,0 -0.2042,-0.034 -0.289,-0.1038 -0.1941,-0.1597 -0.2219,-0.4465 -0.062,-0.6406 0.061,-0.074 0.1247,-0.1343 0.1806,-0.1871 0.1306,-0.1231 0.1347,-0.1373 0.1347,-0.1923 0,-0.055 0,-0.069 -0.1347,-0.1923 -0.1572,-0.1484 -0.4204,-0.3965 -0.4204,-0.8547 0,-0.4581 0.2632,-0.7062 0.4204,-0.8545 0.1306,-0.1231 0.1347,-0.1373 0.1347,-0.1922 0,-0.055 0,-0.069 -0.1347,-0.1922 -0.1572,-0.1483 -0.4204,-0.3964 -0.4204,-0.8545 0,-0.4581 0.2632,-0.7062 0.4205,-0.8545 0.051,-0.048 0.099,-0.093 0.12,-0.1273 0.1322,-0.2137 0.4128,-0.2798 0.6266,-0.1476 0.2138,0.1323 0.2798,0.4128 0.1476,0.6265 -0.084,0.1356 -0.1871,0.2328 -0.2699,0.3109 -0.1305,0.123 -0.1346,0.1371 -0.1346,0.192 0,0.055 0,0.069 0.1347,0.1922 0.1572,0.1483 0.4204,0.3964 0.4204,0.8545 0,0.4581 -0.2632,0.7062 -0.4204,0.8545 -0.1306,0.1231 -0.1347,0.1373 -0.1347,0.1922 0,0.055 0,0.069 0.1347,0.1924 0.1573,0.1483 0.4204,0.3965 0.4204,0.8546 0,0.4581 -0.2632,0.7063 -0.4204,0.8545 -0.04,0.038 -0.078,0.073 -0.1023,0.1034 -0.09,0.1093 -0.2203,0.1659 -0.3517,0.1659 z"
       style="fill:#b3b3b3;fill-rule:evenodd"
       id="path1930" />
  </g>
  <defs
     id="defs3166" />
  <defs
     id="defs3378" />
  <defs
     id="defs3416" />
</svg>
