<?xml version="1.0" encoding="UTF-8" standalone="no"?>
<svg
   version="1.1"
   width="32.848022pt"
   height="22.962616pt"
   id="svg3420"
   viewBox="0 0 32.848022 22.962616"
   sodipodi:docname="Telas App.cdr"
   inkscape:version="1.3 (1:1.3+202307231459+0e150ed6c4)"
   xmlns:inkscape="http://www.inkscape.org/namespaces/inkscape"
   xmlns:sodipodi="http://sodipodi.sourceforge.net/DTD/sodipodi-0.dtd"
   xmlns="http://www.w3.org/2000/svg"
   xmlns:svg="http://www.w3.org/2000/svg">
  <sodipodi:namedview
     id="namedview3420"
     pagecolor="#ffffff"
     bordercolor="#000000"
     borderopacity="0.25"
     inkscape:showpageshadow="2"
     inkscape:pageopacity="0.0"
     inkscape:pagecheckerboard="0"
     inkscape:deskcolor="#d1d1d1"
     inkscape:zoom="4.7800005"
     inkscape:cx="5996.0245"
     inkscape:cy="1144.3514"
     inkscape:window-width="1300"
     inkscape:window-height="704"
     inkscape:window-x="0"
     inkscape:window-y="0"
     inkscape:window-maximized="1"
     inkscape:current-layer="svg3420"
     inkscape:document-units="pt" />
  <defs
     id="defs4" />
  <defs
     id="defs17" />
  <defs
     id="defs28" />
  <defs
     id="defs58" />
  <defs
     id="defs91" />
  <defs
     id="defs136" />
  <defs
     id="defs189" />
  <defs
     id="defs245" />
  <defs
     id="defs280" />
  <defs
     id="defs293" />
  <defs
     id="defs358" />
  <defs
     id="defs362" />
  <defs
     id="defs400" />
  <defs
     id="defs403" />
  <defs
     id="defs437" />
  <defs
     id="defs554" />
  <defs
     id="defs627" />
  <defs
     id="defs649" />
  <defs
     id="defs733" />
  <defs
     id="defs842" />
  <defs
     id="defs865" />
  <defs
     id="defs947" />
  <defs
     id="defs970" />
  <defs
     id="defs1065" />
  <defs
     id="defs1088" />
  <defs
     id="defs1207" />
  <defs
     id="defs1230" />
  <defs
     id="defs1260" />
  <defs
     id="defs1283" />
  <defs
     id="defs1317" />
  <defs
     id="defs1340" />
  <defs
     id="defs1367" />
  <defs
     id="defs1390" />
  <defs
     id="defs1437" />
  <defs
     id="defs1460" />
  <defs
     id="defs1492" />
  <defs
     id="defs1521" />
  <defs
     id="defs1544" />
  <g
     id="Layer1161"
     transform="translate(-5842.131,-967.39162)">
    <path
       d="m 5845.3693,970.3866 v 11.8424 h 25.6521 v -11.8424 q 0,-2.995 -2.995,-2.995 h -19.662 q -2.9951,0 -2.9951,2.995 z"
       style="fill:#b3b3b3;fill-rule:evenodd"
       id="path1792" />
    <path
       d="m 5842.2226,983.9138 h 31.8952 l -5.4256,-7.9669 h -21.0439 z"
       style="fill:#900dfc;fill-rule:evenodd"
       id="path1793" />
    <path
       d="m 5847.6482,977.0955 v -1.3916 q 0,2.9528 2.9528,2.9528 h 3.9905 q 2.9528,0 2.9528,-2.9528 v 1.3916 q 0,-2.9528 -2.9528,-2.9528 h -3.9905 q -2.9528,0 -2.9528,2.9528 z"
       style="fill:#ae4cff;fill-rule:evenodd"
       id="path1794" />
    <path
       d="m 5859.4541,977.0955 v -1.3916 q 0,2.9528 2.9529,2.9528 h 3.9904 q 2.9529,0 2.9529,-2.9528 v 1.3916 q 0,-2.9528 -2.9529,-2.9528 h -3.9904 q -2.9529,0 -2.9529,2.9528 z"
       style="fill:#ae4cff;fill-rule:evenodd"
       id="path1795" />
    <path
       d="m 5842.2227,983.914 v 3.7328 h 31.9454 v -3.7328 z"
       style="fill:#6c00c4;fill-rule:evenodd"
       id="path1796" />
    <path
       d="m 5845.2098,987.45303 -2.9717,-0.2826 c 0,3.06661 -1.0989,3.0518 3.7364,3.0518 l -2.2387,-0.017 c 2.1995,-0.0481 1.4928,0.0318 1.4928,-3.03484 l 0.081,2.6594 z"
       style="fill:#b3b3b3;fill-rule:evenodd;stroke-width:0.586829"
       id="path1797"
       sodipodi:nodetypes="ccccccc" />
    <path
       d="m 5874.2141,987.57515 -2.9717,0.026 c 0,3.06661 -1.0989,2.74323 3.7364,2.74323 l -2.2387,-0.017 c 2.1995,-0.0481 1.4928,0.0318 1.4928,-3.03484 l 0.081,2.6594 z"
       style="fill:#b3b3b3;fill-rule:evenodd;stroke-width:0.586829"
       id="path1797-3"
       sodipodi:nodetypes="ccccccc" />
  </g>
  <defs
     id="defs3166" />
  <defs
     id="defs3378" />
  <defs
     id="defs3416" />
</svg>
