<?xml version="1.0" encoding="UTF-8" standalone="no"?>
<svg
   version="1.1"
   width="32.775146pt"
   height="20.036407pt"
   id="svg3420"
   viewBox="0 0 32.775146 20.036408"
   sodipodi:docname="Telas App.cdr"
   xmlns:inkscape="http://www.inkscape.org/namespaces/inkscape"
   xmlns:sodipodi="http://sodipodi.sourceforge.net/DTD/sodipodi-0.dtd"
   xmlns="http://www.w3.org/2000/svg"
   xmlns:svg="http://www.w3.org/2000/svg">
  <sodipodi:namedview
     id="namedview3420"
     pagecolor="#ffffff"
     bordercolor="#000000"
     borderopacity="0.25"
     inkscape:showpageshadow="2"
     inkscape:pageopacity="0.0"
     inkscape:pagecheckerboard="0"
     inkscape:deskcolor="#d1d1d1"
     inkscape:document-units="pt" />
  <defs
     id="defs4" />
  <defs
     id="defs17" />
  <defs
     id="defs28" />
  <defs
     id="defs58" />
  <defs
     id="defs91" />
  <defs
     id="defs136" />
  <defs
     id="defs189" />
  <defs
     id="defs245" />
  <defs
     id="defs280" />
  <defs
     id="defs293" />
  <defs
     id="defs358" />
  <defs
     id="defs362" />
  <defs
     id="defs400" />
  <defs
     id="defs403" />
  <defs
     id="defs437" />
  <defs
     id="defs554" />
  <defs
     id="defs627" />
  <defs
     id="defs649" />
  <defs
     id="defs733" />
  <defs
     id="defs842" />
  <defs
     id="defs865" />
  <defs
     id="defs947" />
  <defs
     id="defs970" />
  <defs
     id="defs1065" />
  <defs
     id="defs1088" />
  <defs
     id="defs1207" />
  <defs
     id="defs1230" />
  <defs
     id="defs1260" />
  <defs
     id="defs1283" />
  <defs
     id="defs1317" />
  <defs
     id="defs1340" />
  <defs
     id="defs1367" />
  <defs
     id="defs1390" />
  <defs
     id="defs1437" />
  <defs
     id="defs1460" />
  <defs
     id="defs1492" />
  <defs
     id="defs1521" />
  <defs
     id="defs1544" />
  <g
     id="Layer1206"
     transform="translate(-3899.6224,-589.55588)">
    <path
       d="m 3902.0956,603.0931 h 9.3643 v 3.3757 h -9.3643 z"
       style="fill:#b3b3b3;fill-rule:evenodd"
       id="path2097" />
    <path
       d="m 3917.1311,593.6641 v 3.559 c 0,1.0192 -0.8267,1.8454 -1.8467,1.8454 h -2.7695 v -1.9772 h 2.5057 c 0.073,0 0.1321,-0.059 0.1321,-0.1318 v -3.0319 c 0,-0.0727 -0.059,-0.1317 -0.1321,-0.1317 l -2.5057,-10e-5 v -1.9771 h 2.7695 c 1.0203,0 1.8467,0.8264 1.8467,1.8454 z"
       style="fill:#b3b3b3;fill-rule:evenodd"
       id="path2098" />
    <path
       d="m 3911.7239,603.7922 h -9.8923 c -0.4369,0 -0.7912,-0.3543 -0.7912,-0.7911 V 589.812 c 0,-0.1416 0.1148,-0.2561 0.256,-0.2561 h 10.9627 c 0.1412,0 0.256,0.1145 0.256,0.2561 v 13.1891 c 0,0.4368 -0.3543,0.7911 -0.7912,0.7911 z"
       style="fill:#b3b3b3;fill-rule:evenodd"
       id="path2099" />
    <path
       d="m 3911.79,599.7374 c 0,0 -3.288,2.0849 -3.486,3.9821 -0.1983,1.8969 2.7431,3.5147 6.4213,2.3202 1.0743,-0.349 -1.9171,-4.3021 -2.9353,-6.3023 z"
       style="fill:#900dfc;fill-rule:evenodd"
       id="path2100" />
    <path
       d="m 3915.7125,596.9495 c 0,0 -2.9906,0.5906 -4.82,2.4923 -0.1365,0.142 -0.1785,0.3501 -0.1038,0.5324 0.4389,1.0719 2.0657,4.8198 3.9366,6.3106 0,0 1.3528,0.8019 2.6579,-0.3296 0.21,-0.1821 -0.8085,-3.9289 -1.6707,-9.0057 z"
       style="fill:#900dfc;fill-rule:evenodd"
       id="path2101" />
    <path
       d="m 3927.7481,599.7374 c 0,0 3.288,2.0849 3.486,3.9821 0.1983,1.8969 -2.8163,3.5147 -6.4946,2.3202 -1.0745,-0.349 1.9904,-4.3021 3.0086,-6.3023 z"
       style="fill:#900dfc;fill-rule:evenodd"
       id="path2102" />
    <path
       d="m 3923.8255,596.9495 c 0,0 2.9909,0.5906 4.8203,2.4923 0.1366,0.142 0.1783,0.3501 0.1035,0.5324 -0.4388,1.0719 -2.0657,4.8198 -3.9363,6.3106 0,0 -1.3531,0.8019 -2.6581,-0.3296 -0.2098,-0.1821 0.8085,-3.9289 1.6706,-9.0057 z"
       style="fill:#900dfc;fill-rule:evenodd"
       id="path2103" />
    <path
       d="m 3919.7692,595.5537 c -2.3513,0.005 -3.8276,0.5549 -4.4325,0.8382 -0.1905,0.0893 -0.3036,0.2881 -0.2823,0.4976 0.1585,1.5531 0.8707,8.0442 1.7696,8.7784 1.022,0.8344 4.8681,0.8344 5.8901,0 0.8989,-0.7342 1.611,-7.2253 1.7693,-8.7784 0.021,-0.2095 -0.091,-0.4083 -0.282,-0.4976 -0.6049,-0.2833 -2.0812,-0.8337 -4.4322,-0.8382 z"
       style="fill:#900dfc;fill-rule:evenodd"
       id="path2104" />
    <path
       d="m 3931.4089,607.7468 h -0.9566 v 0.6588 c 0,0.6553 -0.5314,1.1867 -1.1867,1.1867 v 0 h -26.5109 c -0.6554,0 -1.1867,-0.5314 -1.1867,-1.1867 v -0.6588 h -0.9568 c -0.546,0 -0.9886,-0.4425 -0.9886,-0.9888 0,-0.546 0.4426,-0.9886 0.9886,-0.9886 h 30.7977 c 0.5462,0 0.9887,0.4429 0.9887,0.9888 0,0.5461 -0.4425,0.9886 -0.9887,0.9886 z"
       style="fill:#ae4cff;fill-rule:evenodd"
       id="path2105" />
  </g>
  <defs
     id="defs3166" />
  <defs
     id="defs3378" />
  <defs
     id="defs3416" />
</svg>
