<?xml version="1.0" encoding="UTF-8" standalone="no"?>
<svg
   version="1.1"
   width="22.097166pt"
   height="23.516691pt"
   id="svg3420"
   viewBox="0 0 22.097166 23.516691"
   sodipodi:docname="Telas App.cdr"
   inkscape:version="1.3 (1:1.3+202307231459+0e150ed6c4)"
   xmlns:inkscape="http://www.inkscape.org/namespaces/inkscape"
   xmlns:sodipodi="http://sodipodi.sourceforge.net/DTD/sodipodi-0.dtd"
   xmlns="http://www.w3.org/2000/svg"
   xmlns:svg="http://www.w3.org/2000/svg">
  <sodipodi:namedview
     id="namedview3420"
     pagecolor="#ffffff"
     bordercolor="#000000"
     borderopacity="0.25"
     inkscape:showpageshadow="2"
     inkscape:pageopacity="0.0"
     inkscape:pagecheckerboard="0"
     inkscape:deskcolor="#d1d1d1"
     inkscape:zoom="4.7800005"
     inkscape:cx="5996.0245"
     inkscape:cy="1144.3514"
     inkscape:window-width="1300"
     inkscape:window-height="704"
     inkscape:window-x="0"
     inkscape:window-y="0"
     inkscape:window-maximized="1"
     inkscape:current-layer="svg3420"
     inkscape:document-units="pt" />
  <defs
     id="defs4" />
  <defs
     id="defs17" />
  <defs
     id="defs28" />
  <defs
     id="defs58" />
  <defs
     id="defs91" />
  <defs
     id="defs136" />
  <defs
     id="defs189" />
  <defs
     id="defs245" />
  <defs
     id="defs280" />
  <defs
     id="defs293" />
  <defs
     id="defs358" />
  <defs
     id="defs362" />
  <defs
     id="defs400" />
  <defs
     id="defs403" />
  <defs
     id="defs437" />
  <defs
     id="defs554" />
  <defs
     id="defs627" />
  <defs
     id="defs649" />
  <defs
     id="defs733" />
  <defs
     id="defs842" />
  <defs
     id="defs865" />
  <defs
     id="defs947" />
  <defs
     id="defs970" />
  <defs
     id="defs1065" />
  <defs
     id="defs1088" />
  <g
     id="Layer1079"
     transform="translate(-5275.5519,-1041.3378)">
    <path
       d="m 5278.3313,1056.2309 h -1.35 c -0.7893,0 -1.4293,-0.6399 -1.4293,-1.4293 v -3.4109 c 0,-0.7894 0.6399,-1.4293 1.4293,-1.4293 h 1.35 z"
       style="fill:#6c00c4;fill-rule:evenodd"
       id="path1133" />
    <path
       d="m 5295.0841,1064.8545 h -15.1358 c -1.4167,0 -2.5652,-1.1484 -2.5652,-2.5651 v -18.3865 c 0,-1.4166 1.1485,-2.5651 2.5652,-2.5651 h 15.1359 c 1.4167,0 2.5651,1.1485 2.5651,2.5651 v 18.3865 c 0,1.4167 -1.1484,2.5651 -2.5652,2.5651 z"
       style="fill:#900dfc;fill-rule:evenodd"
       id="path1134" />
    <path
       d="m 5280.944,1062.644 c -0.7458,0 -1.3503,-0.6046 -1.3503,-1.3503 v -16.3951 c 0,-0.7458 0.6045,-1.3502 1.3502,-1.3502 h 13.1446 c 0.7458,0 1.3503,0.6045 1.3503,1.3503 v 16.395 c 0,0.7458 -0.6046,1.3503 -1.3503,1.3503 z"
       style="fill:#ae4cff;fill-rule:evenodd"
       id="path1135" />
    <path
       d="m 5285.049,1062.644 h -3.0701 v -6.1877 c 0,-0.6346 0.5143,-1.149 1.1489,-1.149 h 0.7723 c 0.6345,0 1.149,0.5144 1.149,1.149 v 6.1877 z"
       style="fill:#b3b3b3;fill-rule:evenodd"
       id="path1136" />
    <path
       d="m 5288.1191,1062.644 h -3.0701 v -6.1877 c 0,-0.6346 0.5144,-1.149 1.149,-1.149 h 0.7723 c 0.6345,0 1.1489,0.5144 1.1489,1.149 v 6.1877 z"
       style="fill:#6c00c4;fill-rule:evenodd"
       id="path1137" />
    <path
       d="m 5285.4446,1046.2281 a 2.0719,2.0719 0 0 1 -2.0719,2.0719 2.0719,2.0719 0 1 1 2.0719,-2.0719 z"
       style="fill:#b3b3b3;fill-rule:evenodd"
       id="path1138" />
    <path
       d="m 5289.5882,1046.2281 a 2.0719,2.0719 0 0 1 -2.0719,2.0719 2.0719,2.0719 0 1 1 2.0719,-2.0719 z"
       style="fill:#6c00c4;fill-rule:evenodd"
       id="path1139" />
    <path
       d="m 5288.1071,1046.5829 h -1.1816 c -0.196,0 -0.3549,-0.1589 -0.3549,-0.3549 0,-0.196 0.1589,-0.3548 0.3549,-0.3548 h 1.1816 c 0.196,0 0.3549,0.1588 0.3549,0.3548 0,0.196 -0.1589,0.3549 -0.3549,0.3549 z"
       style="fill:#b3b3b3;fill-rule:evenodd"
       id="path1140" />
    <path
       d="m 5293.7317,1046.2281 a 2.0719,2.0719 0 0 1 -2.0719,2.0719 2.0719,2.0719 0 1 1 2.0719,-2.0719 z"
       style="fill:#b3b3b3;fill-rule:evenodd"
       id="path1141" />
    <path
       d="m 5291.6087,1053.206 v -1.9576 h -2.0447 v 1.9576 c 0,0.5757 -0.146,1.142 -0.4242,1.6461 l -0.5965,1.0804 c -0.2783,0.504 -0.4242,1.0703 -0.4242,1.6461 v 4.026 c 0,0.5741 0.4654,1.0395 1.0395,1.0395 h 2.8555 c 0.574,0 1.0394,-0.4655 1.0394,-1.0395 v -4.0261 c 0,-0.5757 -0.1459,-1.142 -0.4242,-1.6461 l -0.5965,-1.0804 c -0.2782,-0.504 -0.4241,-1.0703 -0.4241,-1.646 z"
       style="fill:#b3b3b3;fill-rule:evenodd"
       id="path1142" />
    <path
       d="m 5291.3608,1052.4626 h -1.5489 c -0.4023,0 -0.7315,-0.3292 -0.7315,-0.7315 v 0 c 0,-0.4023 0.3292,-0.7314 0.7315,-0.7314 h 1.5489 c 0.4023,0 0.7315,0.3291 0.7315,0.7314 v 0 c 0,0.4023 -0.3292,0.7315 -0.7315,0.7315 z"
       style="fill:#6c00c4;fill-rule:evenodd"
       id="path1143" />
    <path
       d="m 5283.9702,1047.9195 0.021,-4e-4 h -4.3978 v 4e-4 1.6574 h 4.3978 11.4472 v -1.6574 z"
       style="fill:#900dfc;fill-rule:evenodd"
       id="path1144" />
    <path
       d="m 5292.2503,1046.5829 h -1.1816 c -0.196,0 -0.3548,-0.1589 -0.3548,-0.3549 0,-0.196 0.1588,-0.3548 0.3548,-0.3548 h 1.1816 c 0.196,0 0.3549,0.1588 0.3549,0.3548 0,0.196 -0.1589,0.3549 -0.3549,0.3549 z"
       style="fill:#900dfc;fill-rule:evenodd"
       id="path1145" />
    <path
       d="m 5283.9632,1046.5829 h -1.1816 c -0.196,0 -0.3549,-0.1589 -0.3549,-0.3549 0,-0.196 0.1589,-0.3548 0.3549,-0.3548 h 1.1816 c 0.196,0 0.3549,0.1588 0.3549,0.3548 0,0.196 -0.1589,0.3549 -0.3549,0.3549 z"
       style="fill:#900dfc;fill-rule:evenodd"
       id="path1146" />
  </g>
  <defs
     id="defs1207" />
  <defs
     id="defs1230" />
  <defs
     id="defs1260" />
  <defs
     id="defs1283" />
  <defs
     id="defs1317" />
  <defs
     id="defs1340" />
  <defs
     id="defs1367" />
  <defs
     id="defs1390" />
  <defs
     id="defs1437" />
  <defs
     id="defs1460" />
  <defs
     id="defs1492" />
  <defs
     id="defs1521" />
  <defs
     id="defs1544" />
  <defs
     id="defs3166" />
  <defs
     id="defs3378" />
  <defs
     id="defs3416" />
</svg>
