<?xml version="1.0" encoding="UTF-8" standalone="no"?>
<svg
   version="1.1"
   width="21.029297pt"
   height="24.89209pt"
   id="svg3420"
   viewBox="0 0 21.029297 24.89209"
   sodipodi:docname="Telas App.cdr"
   xmlns:inkscape="http://www.inkscape.org/namespaces/inkscape"
   xmlns:sodipodi="http://sodipodi.sourceforge.net/DTD/sodipodi-0.dtd"
   xmlns="http://www.w3.org/2000/svg"
   xmlns:svg="http://www.w3.org/2000/svg">
  <sodipodi:namedview
     id="namedview3420"
     pagecolor="#ffffff"
     bordercolor="#000000"
     borderopacity="0.25"
     inkscape:showpageshadow="2"
     inkscape:pageopacity="0.0"
     inkscape:pagecheckerboard="0"
     inkscape:deskcolor="#d1d1d1"
     inkscape:document-units="pt" />
  <defs
     id="defs4" />
  <defs
     id="defs17" />
  <defs
     id="defs28" />
  <defs
     id="defs58" />
  <defs
     id="defs91" />
  <defs
     id="defs136" />
  <defs
     id="defs189" />
  <defs
     id="defs245" />
  <defs
     id="defs280" />
  <defs
     id="defs293" />
  <defs
     id="defs358" />
  <defs
     id="defs362" />
  <defs
     id="defs400" />
  <defs
     id="defs403" />
  <defs
     id="defs437" />
  <defs
     id="defs554" />
  <defs
     id="defs627" />
  <defs
     id="defs649" />
  <defs
     id="defs733" />
  <path
     d="M 19.743689,23.79215 V 5.0093755e-5 q 0,1.285800006245 1.2858,1.285800006245 H 8.9080843e-5 Q 1.2858891,1.2858501 1.2858891,5.0093755e-5 V 23.79215 q 0,-1.2858 -1.285800019157,-1.2858 H 21.029489 q -1.2858,0 -1.2858,1.2858 z"
     style="fill:#900dfc;fill-rule:evenodd"
     id="path834" />
  <path
     d="m 7.9533891,6.5524501 h 3.3345999 c 0.9791,0 1.8713,0.402 2.5179,1.0478 v 0.005 c 0.6458,0.6465 1.0479,1.5387 1.0479,2.5178999 v 0.0167 c 0,0.9799 -0.4021,1.8713 -1.0479,2.5179 v 0.005 c -0.6465,0.6466 -1.5403,1.0479 -2.5224,1.0479 H 9.0874891 v 3.5304 h -2.2771 v -3.5304 -4.2901999 -2.8671 z m 3.3345999,2.2772 H 9.0919891 v 0.5899 2.0129999 h 2.1959999 c 0.3546,0 0.678,-0.1458 0.9127,-0.3804 0.235,-0.232 0.3804,-0.5566 0.3804,-0.9127 v -0.0167 c 0,-0.3564999 -0.1454,-0.6803999 -0.3782,-0.9149999 -0.2346,-0.2327 -0.5584,-0.3781 -0.9149,-0.3781 z"
     style="fill:#b3b3b3;fill-rule:evenodd"
     id="path836" />
  <path
     d="m 9.0395891,22.50635 v 2.3858 h 2.9506999 v -2.3858 z"
     style="fill:#b3b3b3;fill-rule:evenodd"
     id="path841" />
  <defs
     id="defs842" />
  <defs
     id="defs865" />
  <defs
     id="defs947" />
  <defs
     id="defs970" />
  <defs
     id="defs1065" />
  <defs
     id="defs1088" />
  <defs
     id="defs1207" />
  <defs
     id="defs1230" />
  <defs
     id="defs1260" />
  <defs
     id="defs1283" />
  <defs
     id="defs1317" />
  <defs
     id="defs1340" />
  <defs
     id="defs1367" />
  <defs
     id="defs1390" />
  <defs
     id="defs1437" />
  <defs
     id="defs1460" />
  <defs
     id="defs1492" />
  <defs
     id="defs1521" />
  <defs
     id="defs1544" />
  <defs
     id="defs3166" />
  <defs
     id="defs3378" />
  <defs
     id="defs3416" />
</svg>
