<?xml version="1.0" encoding="UTF-8" standalone="no"?>
<svg
   version="1.1"
   width="22.787842pt"
   height="22.788025pt"
   id="svg3420"
   viewBox="0 0 22.787842 22.788025"
   sodipodi:docname="Telas App.cdr"
   inkscape:version="1.3 (1:1.3+202307231459+0e150ed6c4)"
   xmlns:inkscape="http://www.inkscape.org/namespaces/inkscape"
   xmlns:sodipodi="http://sodipodi.sourceforge.net/DTD/sodipodi-0.dtd"
   xmlns="http://www.w3.org/2000/svg"
   xmlns:svg="http://www.w3.org/2000/svg">
  <sodipodi:namedview
     id="namedview3420"
     pagecolor="#ffffff"
     bordercolor="#000000"
     borderopacity="0.25"
     inkscape:showpageshadow="2"
     inkscape:pageopacity="0.0"
     inkscape:pagecheckerboard="0"
     inkscape:deskcolor="#d1d1d1"
     inkscape:zoom="4.7800005"
     inkscape:cx="5996.0245"
     inkscape:cy="1144.3514"
     inkscape:window-width="1300"
     inkscape:window-height="704"
     inkscape:window-x="0"
     inkscape:window-y="0"
     inkscape:window-maximized="1"
     inkscape:current-layer="svg3420"
     inkscape:document-units="pt" />
  <defs
     id="defs4" />
  <defs
     id="defs17" />
  <defs
     id="defs28" />
  <defs
     id="defs58" />
  <defs
     id="defs91" />
  <defs
     id="defs136" />
  <defs
     id="defs189" />
  <defs
     id="defs245" />
  <defs
     id="defs280" />
  <defs
     id="defs293" />
  <defs
     id="defs358" />
  <defs
     id="defs362" />
  <defs
     id="defs400" />
  <defs
     id="defs403" />
  <defs
     id="defs437" />
  <defs
     id="defs554" />
  <defs
     id="defs627" />
  <defs
     id="defs649" />
  <defs
     id="defs733" />
  <defs
     id="defs842" />
  <defs
     id="defs865" />
  <defs
     id="defs947" />
  <defs
     id="defs970" />
  <defs
     id="defs1065" />
  <defs
     id="defs1088" />
  <defs
     id="defs1207" />
  <defs
     id="defs1230" />
  <defs
     id="defs1260" />
  <defs
     id="defs1283" />
  <defs
     id="defs1317" />
  <defs
     id="defs1340" />
  <defs
     id="defs1367" />
  <defs
     id="defs1390" />
  <defs
     id="defs1437" />
  <defs
     id="defs1460" />
  <defs
     id="defs1492" />
  <defs
     id="defs1521" />
  <defs
     id="defs1544" />
  <g
     id="Layer1163"
     transform="translate(-6557.447,-966.61202)">
    <path
       d="m 6558.3621,966.612 h 20.9577 c 0.5054,0 0.9152,0.4099 0.9152,0.9152 v 18.6624 c 0,0.5054 -0.4098,0.9152 -0.9152,0.9152 h -20.9577 c -0.5053,0 -0.9151,-0.4098 -0.9151,-0.9152 l -1e-4,-18.6624 c 1e-4,-0.5053 0.4099,-0.9152 0.9153,-0.9152 z"
       style="fill:#6c00c4;fill-rule:evenodd"
       id="path1808" />
    <path
       d="m 6559.5061,987.1048 h 5.4302 v 1.5631 c 0,0.4043 -0.3279,0.7322 -0.7322,0.7322 h -3.9658 c -0.4043,0 -0.7322,-0.3279 -0.7322,-0.7322 z"
       style="fill:#b3b3b3;fill-rule:evenodd"
       id="path1809" />
    <path
       d="m 6577.4437,989.4001 h -3.9658 c -0.4043,0 -0.7322,-0.3279 -0.7322,-0.7321 v -1.5632 h 5.4302 v 1.5632 c -1e-4,0.4042 -0.3279,0.7321 -0.7322,0.7321 z"
       style="fill:#b3b3b3;fill-rule:evenodd"
       id="path1810" />
    <path
       d="m 6575.6285,972.2294 h 4.6065 v 2.8677 h -4.6065 z"
       style="fill:#b3b3b3;fill-rule:evenodd"
       id="path1811" />
    <path
       d="m 6575.6285,978.6198 h 4.6065 v 2.8676 h -4.6065 z"
       style="fill:#b3b3b3;fill-rule:evenodd"
       id="path1812" />
    <path
       d="m 6575.6285,981.4874 v -2.8676 h 2.7762 v -3.5227 h -2.7762 v -2.8677 h 2.7762 v -3.787 h -19.1274 v 16.832 h 19.1274 v -3.787 z"
       style="fill:#900dfc;fill-rule:evenodd"
       id="path1813" />
    <path
       d="m 6570.5312,976.8584 a 3.0781,3.0781 0 0 1 -3.0782,3.0781 3.0781,3.0781 0 1 1 3.0782,-3.0781 z"
       style="fill:#6c00c4;fill-rule:evenodd"
       id="path1814" />
    <g
       id="Layer1164">
      <path
         d="m 6567.453,978.1062 c 0,0 -1e-4,0 -1e-4,0 -0.689,0 -1.2478,-0.5588 -1.2478,-1.2478 0,-0.689 0.5588,-1.2477 1.2478,-1.2477 0.689,0 1.2477,0.5587 1.2477,1.2477 -8e-4,0.6887 -0.5589,1.2468 -1.2475,1.2478 z"
         style="fill:#ae4cff;fill-rule:evenodd"
         id="path1815" />
      <g
         id="Layer1165">
        <path
           d="m 6564.8235,975.2644 c 0.2572,-0.4229 0.6126,-0.7783 1.0354,-1.0353 l -1.5338,-1.5337 c -0.1029,-0.103 -0.2427,-0.1609 -0.3882,-0.1609 -0.1455,0 -0.2853,0.0579 -0.3882,0.1607 l -0.259,0.259 c -0.1029,0.103 -0.1609,0.2428 -0.1609,0.3884 0,0.1456 0.058,0.2854 0.1609,0.3883 z"
           style="fill:#ae4cff;fill-rule:evenodd"
           id="path1816" />
        <path
           d="m 6570.0825,975.2644 1.5337,-1.5337 c 0.1029,-0.1029 0.1609,-0.2427 0.1609,-0.3883 0,-0.1456 -0.058,-0.2854 -0.1609,-0.3883 l -0.259,-0.2588 c -0.1029,-0.1029 -0.2427,-0.1608 -0.3882,-0.1608 -0.1456,0 -0.2853,0.0579 -0.3882,0.1607 l -1.5339,1.5337 c 0.4228,0.2566 0.779,0.6124 1.0356,1.0353 z"
           style="fill:#ae4cff;fill-rule:evenodd"
           id="path1817" />
        <path
           d="m 6567.453,973.7803 c 0.2469,7e-4 0.4931,0.0319 0.7323,0.0916 v -2.169 c -1e-4,-0.3033 -0.246,-0.5492 -0.5492,-0.5492 h -0.3661 c -0.3032,0 -0.5491,0.2459 -0.5491,0.5491 v 2.1688 c 0.239,-0.0594 0.4853,-0.0906 0.732,-0.0913 z"
           style="fill:#ae4cff;fill-rule:evenodd"
           id="path1818" />
        <path
           d="m 6564.3749,976.8584 c 7e-4,-0.2468 0.032,-0.4931 0.092,-0.7322 l -2.1691,10e-5 c -0.3032,0 -0.5491,0.2459 -0.5491,0.5491 v 0.3661 c 0,0.3032 0.2459,0.5491 0.5492,0.5491 h 2.1689 c -0.06,-0.2391 -0.091,-0.4854 -0.092,-0.732 z"
           style="fill:#ae4cff;fill-rule:evenodd"
           id="path1819" />
        <path
           d="m 6564.8235,978.4525 -1.5338,1.5337 c -0.1029,0.1029 -0.1609,0.2426 -0.1609,0.3882 0,0.1457 0.058,0.2854 0.1609,0.3883 l 0.259,0.2589 c 0.1029,0.1028 0.2427,0.1607 0.3882,0.1607 0.1455,0 0.2853,-0.0579 0.3882,-0.1607 l 1.5339,-1.5337 c -0.4232,-0.2567 -0.7787,-0.6123 -1.0355,-1.0353 z"
           style="fill:#ae4cff;fill-rule:evenodd"
           id="path1820" />
        <path
           d="m 6572.6084,976.1263 h -2.1686 c 0.06,0.2393 0.091,0.4853 0.091,0.7321 0,0.2468 -0.031,0.4929 -0.091,0.732 l 2.1686,2e-4 c 0.3033,0 0.5492,-0.2459 0.5492,-0.5491 v -0.3661 c 0,-0.3032 -0.2459,-0.5491 -0.5492,-0.5491 z"
           style="fill:#ae4cff;fill-rule:evenodd"
           id="path1821" />
        <path
           d="m 6567.453,979.9365 c -0.2468,-7e-4 -0.4931,-0.0318 -0.7322,-0.0915 v 2.1695 c 1e-4,0.3033 0.246,0.5492 0.5492,0.5492 h 0.3661 c 0.3032,0 0.5491,-0.2459 0.5491,-0.5492 v -2.1693 c -0.2391,0.0595 -0.4853,0.0906 -0.732,0.0914 z"
           style="fill:#ae4cff;fill-rule:evenodd"
           id="path1822" />
        <path
           d="m 6570.0825,978.4525 c -0.2566,0.4231 -0.6128,0.7792 -1.0357,1.0363 l 1.5339,1.5337 c 0.103,0.1027 0.2427,0.1606 0.3883,0.1606 0.1455,0 0.2853,-0.0579 0.3882,-0.1608 l 0.259,-0.2588 c 0.1029,-0.1029 0.1609,-0.2427 0.1609,-0.3883 0,-0.1456 -0.058,-0.2854 -0.1609,-0.3883 z"
           style="fill:#ae4cff;fill-rule:evenodd"
           id="path1823" />
      </g>
    </g>
  </g>
  <defs
     id="defs3166" />
  <defs
     id="defs3378" />
  <defs
     id="defs3416" />
</svg>
