<?xml version="1.0" encoding="UTF-8" standalone="no"?>
<svg
   version="1.1"
   width="33.167725pt"
   height="21.236937pt"
   id="svg3420"
   viewBox="0 0 33.167725 21.236937"
   sodipodi:docname="Telas App.cdr"
   inkscape:version="1.3 (1:1.3+202307231459+0e150ed6c4)"
   xmlns:inkscape="http://www.inkscape.org/namespaces/inkscape"
   xmlns:sodipodi="http://sodipodi.sourceforge.net/DTD/sodipodi-0.dtd"
   xmlns="http://www.w3.org/2000/svg"
   xmlns:svg="http://www.w3.org/2000/svg">
  <sodipodi:namedview
     id="namedview3420"
     pagecolor="#ffffff"
     bordercolor="#000000"
     borderopacity="0.25"
     inkscape:showpageshadow="2"
     inkscape:pageopacity="0.0"
     inkscape:pagecheckerboard="0"
     inkscape:deskcolor="#d1d1d1"
     inkscape:zoom="4.7800005"
     inkscape:cx="5996.0245"
     inkscape:cy="1144.3514"
     inkscape:window-width="1300"
     inkscape:window-height="704"
     inkscape:window-x="0"
     inkscape:window-y="0"
     inkscape:window-maximized="1"
     inkscape:current-layer="svg3420"
     inkscape:document-units="pt" />
  <defs
     id="defs4" />
  <defs
     id="defs17" />
  <defs
     id="defs28" />
  <defs
     id="defs58" />
  <defs
     id="defs91" />
  <defs
     id="defs136" />
  <defs
     id="defs189" />
  <defs
     id="defs245" />
  <defs
     id="defs280" />
  <defs
     id="defs293" />
  <defs
     id="defs358" />
  <defs
     id="defs362" />
  <defs
     id="defs400" />
  <defs
     id="defs403" />
  <defs
     id="defs437" />
  <defs
     id="defs554" />
  <defs
     id="defs627" />
  <defs
     id="defs649" />
  <defs
     id="defs733" />
  <defs
     id="defs842" />
  <defs
     id="defs865" />
  <defs
     id="defs947" />
  <defs
     id="defs970" />
  <defs
     id="defs1065" />
  <defs
     id="defs1088" />
  <defs
     id="defs1207" />
  <defs
     id="defs1230" />
  <defs
     id="defs1260" />
  <defs
     id="defs1283" />
  <defs
     id="defs1317" />
  <defs
     id="defs1340" />
  <defs
     id="defs1367" />
  <defs
     id="defs1390" />
  <defs
     id="defs1437" />
  <defs
     id="defs1460" />
  <defs
     id="defs1492" />
  <defs
     id="defs1521" />
  <defs
     id="defs1544" />
  <g
     id="Layer1156"
     transform="translate(-5912.6466,-967.38747)">
    <path
       d="m 5929.2341,983.059 a 2.7827,2.7827 0 0 1 2.7827,2.7826 2.7827,2.7827 0 1 1 -2.7827,-2.7826 z"
       style="fill:#b3b3b3;fill-rule:evenodd"
       id="path1758" />
    <path
       d="m 5913.1757,976.628 c 0.5643,0.4427 1.377,0.3763 1.8565,-0.157 3.4985,-3.8912 8.5692,-6.3421 14.2015,-6.3421 5.6323,0 10.7029,2.4509 14.2014,6.3421 0.4795,0.5334 1.2923,0.5997 1.8565,0.157 v -0.003 c 0.6248,-0.4902 0.7001,-1.4056 0.1688,-1.9958 -4.0003,-4.4435 -9.7945,-7.2417 -16.23,-7.2417 -6.4355,0 -12.2297,2.7982 -16.23,7.2417 -0.5312,0.5902 -0.456,1.5056 0.1688,1.9958 z"
       style="fill:#ae4cff;fill-rule:evenodd"
       id="path1759" />
    <path
       d="m 5917.4997,979.4056 c 0.5594,0.4389 1.3573,0.3716 1.8459,-0.1449 2.4835,-2.6248 5.9979,-4.2648 9.888,-4.2648 3.8902,0 7.4045,1.64 9.888,4.2648 0.4887,0.5165 1.2865,0.5838 1.8459,0.1449 v -0.003 c 0.6298,-0.494 0.707,-1.4252 0.1577,-2.0074 -2.9844,-3.1633 -7.213,-5.1406 -11.8949,-5.1406 -4.6818,0 -8.9104,1.9772 -11.8948,5.1406 -0.5493,0.5822 -0.4722,1.5134 0.1576,2.0074 z"
       style="fill:#900dfc;fill-rule:evenodd"
       id="path1760" />
    <path
       d="m 5921.8364,981.8857 c 0.5381,0.4222 1.3003,0.3768 1.7962,-0.0943 1.4585,-1.3856 3.4305,-2.2359 5.6011,-2.2359 2.1705,0 4.1425,0.8503 5.601,2.2359 0.4959,0.4711 1.2581,0.5164 1.7962,0.0943 0.6558,-0.5145 0.7032,-1.4915 0.1,-2.0666 -1.9523,-1.8606 -4.5936,-3.0044 -7.4969,-3.0044 -2.9034,0 -5.5448,1.1438 -7.497,3.0044 -0.6035,0.5751 -0.5561,1.5521 0.1,2.0666 z"
       style="fill:#6c00c4;fill-rule:evenodd"
       id="path1761" />
  </g>
  <defs
     id="defs3166" />
  <defs
     id="defs3378" />
  <defs
     id="defs3416" />
</svg>
