<?xml version="1.0" encoding="UTF-8" standalone="no"?>
<svg
   version="1.1"
   width="12.121582pt"
   height="12.278686pt"
   id="svg3420"
   viewBox="0 0 12.121582 12.278686"
   sodipodi:docname="Telas App.cdr"
   xmlns:inkscape="http://www.inkscape.org/namespaces/inkscape"
   xmlns:sodipodi="http://sodipodi.sourceforge.net/DTD/sodipodi-0.dtd"
   xmlns="http://www.w3.org/2000/svg"
   xmlns:svg="http://www.w3.org/2000/svg">
  <sodipodi:namedview
     id="namedview3420"
     pagecolor="#ffffff"
     bordercolor="#000000"
     borderopacity="0.25"
     inkscape:showpageshadow="2"
     inkscape:pageopacity="0.0"
     inkscape:pagecheckerboard="0"
     inkscape:deskcolor="#d1d1d1"
     inkscape:document-units="pt" />
  <defs
     id="defs4" />
  <defs
     id="defs17" />
  <defs
     id="defs28" />
  <defs
     id="defs58" />
  <defs
     id="defs91" />
  <defs
     id="defs136" />
  <defs
     id="defs189" />
  <defs
     id="defs245" />
  <defs
     id="defs280" />
  <defs
     id="defs293" />
  <defs
     id="defs358" />
  <defs
     id="defs362" />
  <defs
     id="defs400" />
  <defs
     id="defs403" />
  <defs
     id="defs437" />
  <defs
     id="defs554" />
  <defs
     id="defs627" />
  <defs
     id="defs649" />
  <defs
     id="defs733" />
  <defs
     id="defs842" />
  <defs
     id="defs865" />
  <defs
     id="defs947" />
  <defs
     id="defs970" />
  <defs
     id="defs1065" />
  <defs
     id="defs1088" />
  <defs
     id="defs1207" />
  <defs
     id="defs1230" />
  <defs
     id="defs1260" />
  <defs
     id="defs1283" />
  <defs
     id="defs1317" />
  <defs
     id="defs1340" />
  <defs
     id="defs1367" />
  <defs
     id="defs1390" />
  <defs
     id="defs1437" />
  <defs
     id="defs1460" />
  <defs
     id="defs1492" />
  <defs
     id="defs1521" />
  <defs
     id="defs1544" />
  <path
     d="m 10.855659,3.9284197 c -0.089,-0.1859 -0.01,-0.4093 0.176,-0.498 0.186,-0.0888 0.4093,-0.01 0.4981,0.176 0.1922,0.4017 0.3415,0.8277 0.4416,1.2708 0.098,0.434 0.15,0.8832 0.15,1.3405 0,1.6733 -0.6787,3.189 -1.7754,4.2857003 l -0.022,0.0204 c -1.0956004,1.0848 -2.6022004,1.7549 -4.2633004,1.7549 -1.6736,0 -3.189,-0.6786 -4.2857,-1.7753 C 0.67825857,9.4067197 -3.414269e-4,7.8913197 -3.414269e-4,6.2177197 c 0,-1.6722 0.6788999969,-3.1876 1.7759000269,-4.2846 1.0961,-1.09760004 2.6118,-1.77620004 4.2851,-1.77620004 0.3719,0 0.7415,0.0349 1.1035,0.1015 0.1673,0.0309 0.332,0.0683 0.4933,0.112 0,-0.1466 0.09,-0.2849 0.2338,-0.343 0.1916,-0.0774 0.4105,0.015 0.4879,0.2066 l 0.2537,0.6251 c 0.077,0.19160004 -0.015,0.41040004 -0.2067,0.48780004 l -0.6273,0.258 c -0.1908,0.0782 -0.4096,-0.0131 -0.4878,-0.2039 -0.047,-0.1156 -0.033,-0.2415 0.029,-0.3401 -0.1026,-0.0255 -0.2064,-0.0479 -0.3107,-0.0672 -0.1925,-0.0351 -0.3906,-0.0601 -0.5936,-0.074 V 1.4300197 c 0,0.2069 -0.1681,0.375 -0.375,0.375 -0.2069,0 -0.375,-0.1681 -0.375,-0.375 V 0.92031966 c -1.3173,0.0918 -2.5025,0.66390004 -3.3806,1.54200004 -0.8479,0.8462 -1.40970003,1.9792 -1.53070003,3.2412 l 0.62160003,0.0164 c 0.2061,0.005 0.3696,0.1763 0.3648,0.3824 0,0.2061 -0.1763,0.3696 -0.3824,0.3648 l -0.62360003,-0.0164 c 0.059,1.3742 0.64060003,2.613 1.55030003,3.5226 0.9096,0.9096003 2.1484,1.4910003 3.5226,1.5503003 l -0.016,-0.6237 c 0,-0.206 0.1588,-0.3775 0.3649,-0.3823 0.206,-0.005 0.3775,0.1587 0.3824,0.3648 l 0.016,0.6216 c 1.2535,-0.1202 2.3794,-0.6752 3.2236,-1.5120003 l 0.017,-0.0187 c 0.9094004,-0.9094 1.4911004,-2.1487 1.5503004,-3.5226 l -0.6236,0.0164 c -0.2061,0.005 -0.3776,-0.1587 -0.3824,-0.3648 0,-0.2061 0.1587,-0.3776 0.3648,-0.3824 l 0.6222,-0.0164 c -0.022,-0.2262 -0.057,-0.4476 -0.1054,-0.6625 -0.088,-0.3895 -0.2189,-0.7628 -0.3861,-1.1126 z m -5.3294004,3.0093 -1.3797,0.7755 c -0.1802,0.1009 -0.4087,0.0369 -0.5096,-0.1434 -0.1009,-0.1803 -0.037,-0.4088 0.1434,-0.5097 l 1.3859,-0.7789 v -0.0635 c 0,-0.2469 0.1006,-0.4714 0.2628,-0.6336 l 0.027,-0.0246 c 0.068,-0.063 0.1466,-0.1157 0.2319,-0.1551 v -2.1889 c 0,-0.2069 0.1681,-0.375 0.375,-0.375 0.2069,0 0.375,0.1681 0.375,0.375 v 2.1889 c 0.096,0.0448 0.1831,0.1057 0.2571,0.1797 0.1633,0.1636 0.2639,0.3878 0.2639,0.6336 0,0.2463 -0.1006,0.4702 -0.2625,0.6324 -0.1621,0.1635 -0.3866,0.2642 -0.6335,0.2642 -0.1998,0 -0.3849,-0.0658 -0.5343,-0.1766 z m 0.6389,-0.8238 c -0.027,-0.0261 -0.064,-0.0422 -0.1046,-0.0422 -0.036,0 -0.069,0.0125 -0.095,0.0332 l -0.01,0.009 c -0.026,0.0261 -0.043,0.0632 -0.043,0.1035 0,0.0405 0.017,0.0776 0.043,0.1037 0.026,0.0261 0.063,0.0428 0.1038,0.0428 0.04,0 0.077,-0.0167 0.1035,-0.0428 0.026,-0.0252 0.042,-0.0626 0.042,-0.1037 0,-0.0408 -0.016,-0.0777 -0.041,-0.1038 z"
     style="fill:#ffffff;fill-opacity:1;fill-rule:evenodd;stroke-width:0.99975;stroke-dasharray:none"
     id="path2202" />
  <defs
     id="defs3166" />
  <defs
     id="defs3378" />
  <defs
     id="defs3416" />
</svg>
