<?xml version="1.0" encoding="UTF-8" standalone="no"?>
<svg
   version="1.1"
   width="25.661133pt"
   height="21.393311pt"
   id="svg3420"
   viewBox="0 0 25.661133 21.393311"
   sodipodi:docname="Telas App.cdr"
   inkscape:version="1.3 (1:1.3+202307231459+0e150ed6c4)"
   xmlns:inkscape="http://www.inkscape.org/namespaces/inkscape"
   xmlns:sodipodi="http://sodipodi.sourceforge.net/DTD/sodipodi-0.dtd"
   xmlns="http://www.w3.org/2000/svg"
   xmlns:svg="http://www.w3.org/2000/svg">
  <sodipodi:namedview
     id="namedview3420"
     pagecolor="#ffffff"
     bordercolor="#000000"
     borderopacity="0.25"
     inkscape:showpageshadow="2"
     inkscape:pageopacity="0.0"
     inkscape:pagecheckerboard="0"
     inkscape:deskcolor="#d1d1d1"
     inkscape:zoom="4.7800005"
     inkscape:cx="5996.0245"
     inkscape:cy="1144.3514"
     inkscape:window-width="1300"
     inkscape:window-height="704"
     inkscape:window-x="0"
     inkscape:window-y="0"
     inkscape:window-maximized="1"
     inkscape:current-layer="svg3420"
     inkscape:document-units="pt" />
  <defs
     id="defs4" />
  <defs
     id="defs17" />
  <defs
     id="defs28" />
  <defs
     id="defs58" />
  <defs
     id="defs91" />
  <defs
     id="defs136" />
  <defs
     id="defs189" />
  <defs
     id="defs245" />
  <defs
     id="defs280" />
  <defs
     id="defs293" />
  <defs
     id="defs358" />
  <defs
     id="defs362" />
  <defs
     id="defs400" />
  <defs
     id="defs403" />
  <defs
     id="defs437" />
  <defs
     id="defs554" />
  <defs
     id="defs627" />
  <defs
     id="defs649" />
  <defs
     id="defs733" />
  <defs
     id="defs842" />
  <defs
     id="defs865" />
  <defs
     id="defs947" />
  <defs
     id="defs970" />
  <defs
     id="defs1065" />
  <defs
     id="defs1088" />
  <defs
     id="defs1207" />
  <defs
     id="defs1230" />
  <defs
     id="defs1260" />
  <defs
     id="defs1283" />
  <defs
     id="defs1317" />
  <defs
     id="defs1340" />
  <defs
     id="defs1367" />
  <defs
     id="defs1390" />
  <defs
     id="defs1437" />
  <defs
     id="defs1460" />
  <defs
     id="defs1492" />
  <defs
     id="defs1521" />
  <defs
     id="defs1544" />
  <g
     id="Layer1180"
     transform="translate(-8252.3899,-1007.9932)">
    <path
       d="m 8260.1679,1029.3865 h 10.2427 c 0.1566,0 0.2843,-0.1277 0.2843,-0.2843 v -1.9362 c 0,-0.1567 -0.1277,-0.2844 -0.2843,-0.2844 h -2.9043 l -0.996,-3.6452 -1.2209,-4.4686 -1.2209,4.4686 -0.9959,3.6452 h -2.9047 c -0.1566,0 -0.2843,0.1277 -0.2843,0.2844 v 1.9362 c 0,0.1566 0.1277,0.2843 0.2843,0.2843 z"
       style="fill:#b3b3b3;fill-rule:evenodd"
       id="path1911" />
    <path
       d="m 8252.3902,1023.5768 0.1465,-15.5836 c 0,1.1384 0.5646,0.1027 1.703,0.1027 h 22.0991 c 1.1384,0 1.4011,1.9523 1.4011,0.8139 l 0.3102,14.8153 c 0.022,-1.5484 -0.5729,0.102 -1.7113,0.102 h -22.0991 c -1.1384,0 -1.8495,-1.3887 -1.8495,-0.2503 z"
       style="fill:#900dfc;fill-rule:evenodd"
       id="path1912"
       sodipodi:nodetypes="ccssccssc" />
    <path
       d="m 8252.8024,1022.9458 -0.3138,-2.063 25.5578,0.3297 -0.4707,2.5328 c 0,-0.96 -0.01,0.082 -0.9693,0.082 h -22.6343 c -0.96,0 -1.1697,-1.0286 -1.1697,-0.069 z"
       style="fill:#6c00c4;fill-rule:evenodd"
       id="path1913"
       sodipodi:nodetypes="ccccsscc" />
    <path
       d="m 8265.2894,1011.4452 a 3.9467,3.9467 0 0 1 3.9467,3.9467 3.9467,3.9467 0 1 1 -3.9467,-3.9467 z"
       style="fill:#ae4cff;fill-rule:evenodd"
       id="path1914" />
    <path
       d="m 8264.7792,1013.653 1.0794,0.6231 1.0791,0.6233 c 0.1809,0.1044 0.2846,0.284 0.2845,0.4929 -10e-5,0.2089 -0.1038,0.3883 -0.2846,0.4926 l -1.0791,0.6231 -1.0791,0.623 c -0.1808,0.1044 -0.388,0.1045 -0.569,10e-5 -0.1809,-0.1043 -0.2846,-0.2839 -0.2845,-0.4928 l -3e-4,-1.2462 v -1.2464 c 2e-4,-0.2088 0.1036,-0.3881 0.2846,-0.4926 0.1811,-0.1046 0.388,-0.1045 0.569,-10e-5 z"
       style="fill:#b3b3b3;fill-rule:evenodd"
       id="path1915" />
  </g>
  <defs
     id="defs3166" />
  <defs
     id="defs3378" />
  <defs
     id="defs3416" />
</svg>
