<?xml version="1.0" encoding="UTF-8" standalone="no"?>
<svg
   version="1.1"
   width="17.42981pt"
   height="16.988619pt"
   id="svg3420"
   viewBox="0 0 17.42981 16.988619"
   sodipodi:docname="Telas App.cdr"
   inkscape:export-filename="../../Documentos/freelance/Hotel_Vivenzo/pages/reservation/components/footer/icons/home.svg"
   inkscape:export-xdpi="96"
   inkscape:export-ydpi="96"
   xmlns:inkscape="http://www.inkscape.org/namespaces/inkscape"
   xmlns:sodipodi="http://sodipodi.sourceforge.net/DTD/sodipodi-0.dtd"
   xmlns="http://www.w3.org/2000/svg"
   xmlns:svg="http://www.w3.org/2000/svg">
  <sodipodi:namedview
     id="namedview3420"
     pagecolor="#ffffff"
     bordercolor="#000000"
     borderopacity="0.25"
     inkscape:showpageshadow="2"
     inkscape:pageopacity="0.0"
     inkscape:pagecheckerboard="0"
     inkscape:deskcolor="#d1d1d1"
     inkscape:document-units="pt" />
  <defs
     id="defs4" />
  <defs
     id="defs17" />
  <defs
     id="defs28" />
  <defs
     id="defs58" />
  <defs
     id="defs91" />
  <defs
     id="defs136" />
  <defs
     id="defs189" />
  <defs
     id="defs245" />
  <defs
     id="defs280" />
  <defs
     id="defs293" />
  <defs
     id="defs358" />
  <defs
     id="defs362" />
  <defs
     id="defs400" />
  <defs
     id="defs403" />
  <defs
     id="defs437" />
  <defs
     id="defs554" />
  <defs
     id="defs627" />
  <defs
     id="defs649" />
  <defs
     id="defs733" />
  <defs
     id="defs842" />
  <defs
     id="defs865" />
  <defs
     id="defs947" />
  <defs
     id="defs970" />
  <g
     id="Layer1071"
     transform="translate(-4699.0216,-1320.7582)">
    <defs
       id="defs1056" />
    <path
       d="m 4714.1867,1327.3121 1.6192,1.5817 c 0.1708,0.167 0.2057,0.3886 0.093,0.5868 -0.1126,0.1986 -0.3405,0.318 -0.606,0.318 h -1.3286 v 6.5665 c 0,0.4849 -0.3967,0.8817 -0.8813,0.8817 h -2.6392 c -0.3033,0 -0.551,-0.2477 -0.551,-0.5511 v -3.7444 c 0,-0.3375 -0.2759,-0.6131 -0.6131,-0.6131 h -3.0375 c -0.3375,0 -0.6132,0.2756 -0.6132,0.6131 v 3.7444 c 0,0.3034 -0.2477,0.5511 -0.551,0.5511 h -2.6876 c -0.485,0 -0.882,-0.3968 -0.882,-0.8817 v -6.5665 h -1.3286 c -0.2655,0 -0.4934,-0.1194 -0.606,-0.318 -0.1126,-0.1985 -0.077,-0.4188 0.093,-0.5868 l 3.5752,-3.5191 3.9813,-3.9192 c 0.1315,-0.1296 0.3079,-0.1972 0.513,-0.1972 0.205,0 0.3814,0.068 0.5129,0.1972 l 3.9813,3.9192"
       style="display:inline;fill:none;stroke:#ffffff;stroke-width:1.0001;stroke-linecap:round;stroke-linejoin:round;stroke-dasharray:none"
       id="path1057"
       inkscape:export-filename="../../Documentos/freelance/Hotel_Vivenzo/pages/reservation/components/footer/icons/path1057.svg"
       inkscape:export-xdpi="96"
       inkscape:export-ydpi="96" />
  </g>
  <defs
     id="defs1065" />
  <defs
     id="defs1088" />
  <defs
     id="defs1207" />
  <defs
     id="defs1230" />
  <defs
     id="defs1260" />
  <defs
     id="defs1283" />
  <defs
     id="defs1317" />
  <defs
     id="defs1340" />
  <defs
     id="defs1367" />
  <defs
     id="defs1390" />
  <defs
     id="defs1437" />
  <defs
     id="defs1460" />
  <defs
     id="defs1492" />
  <defs
     id="defs1521" />
  <defs
     id="defs1544" />
  <defs
     id="defs3166" />
  <defs
     id="defs3378" />
  <defs
     id="defs3416" />
</svg>
