<?xml version="1.0" encoding="UTF-8" standalone="no"?>
<svg
   version="1.1"
   width="10.308105pt"
   height="11.781189pt"
   id="svg3420"
   viewBox="0 0 10.308105 11.781189"
   sodipodi:docname="Telas App.cdr"
   inkscape:version="1.3 (1:1.3+202307231459+0e150ed6c4)"
   xmlns:inkscape="http://www.inkscape.org/namespaces/inkscape"
   xmlns:sodipodi="http://sodipodi.sourceforge.net/DTD/sodipodi-0.dtd"
   xmlns="http://www.w3.org/2000/svg"
   xmlns:svg="http://www.w3.org/2000/svg">
  <sodipodi:namedview
     id="namedview3420"
     pagecolor="#ffffff"
     bordercolor="#000000"
     borderopacity="0.25"
     inkscape:showpageshadow="2"
     inkscape:pageopacity="0.0"
     inkscape:pagecheckerboard="0"
     inkscape:deskcolor="#d1d1d1"
     inkscape:zoom="4.7800005"
     inkscape:cx="5996.0245"
     inkscape:cy="1144.3514"
     inkscape:window-width="1300"
     inkscape:window-height="704"
     inkscape:window-x="0"
     inkscape:window-y="0"
     inkscape:window-maximized="1"
     inkscape:current-layer="svg3420"
     inkscape:document-units="pt" />
  <defs
     id="defs4" />
  <defs
     id="defs17" />
  <defs
     id="defs28" />
  <defs
     id="defs58" />
  <defs
     id="defs91" />
  <defs
     id="defs136" />
  <defs
     id="defs189" />
  <defs
     id="defs245" />
  <defs
     id="defs280" />
  <defs
     id="defs293" />
  <defs
     id="defs358" />
  <defs
     id="defs362" />
  <defs
     id="defs400" />
  <defs
     id="defs403" />
  <defs
     id="defs437" />
  <defs
     id="defs554" />
  <defs
     id="defs627" />
  <defs
     id="defs649" />
  <defs
     id="defs733" />
  <defs
     id="defs842" />
  <defs
     id="defs865" />
  <defs
     id="defs947" />
  <defs
     id="defs970" />
  <defs
     id="defs1065" />
  <defs
     id="defs1088" />
  <defs
     id="defs1207" />
  <defs
     id="defs1230" />
  <defs
     id="defs1260" />
  <defs
     id="defs1283" />
  <defs
     id="defs1317" />
  <defs
     id="defs1340" />
  <defs
     id="defs1367" />
  <defs
     id="defs1390" />
  <defs
     id="defs1437" />
  <defs
     id="defs1460" />
  <defs
     id="defs1492" />
  <defs
     id="defs1521" />
  <defs
     id="defs1544" />
  <g
     id="Layer1288"
     transform="translate(-8003.8625,-776.72817)">
    <defs
       id="defs3078" />
    <defs
       id="defs3101" />
    <g
       id="Layer1290">
      <path
         d="m 8008.1092,778.1027 h 2.9629 c 0.1086,0 0.1964,-0.0878 0.1964,-0.1964 0,-0.1086 -0.088,-0.1964 -0.1964,-0.1964 h -0.3961 v -0.1965 c 0,-0.2165 0.1759,-0.3924 0.3925,-0.3924 h 0.2456 c 0.2165,0 0.3928,0.1759 0.3928,0.3924 v 1.0309 c 0,0.1479 -0.082,0.2766 -0.203,0.3436 -0.022,-0.0845 -0.098,-0.1472 -0.1898,-0.1472 -0.1083,0 -0.1964,0.0878 -0.1964,0.1964 v 0.3928 c 0,0.1083 0.088,0.1961 0.1964,0.1961 0.1082,0 0.1964,-0.0878 0.1964,-0.1961 v -0.0251 c 0.3383,-0.0874 0.5888,-0.3951 0.5888,-0.7605 v -1.0309 c 0,-0.433 -0.3522,-0.7852 -0.7852,-0.7852 h -0.2456 c -0.4331,0 -0.7853,0.3522 -0.7853,0.7852 v 0.1965 h -2.174 c -0.1086,0 -0.1964,0.0878 -0.1964,0.1964 0,0.1086 0.088,0.1964 0.1964,0.1964 z m 4.6896,0 h 0.5866 c 0.2165,0 0.3924,0.1762 0.3924,0.3928 v 1.5461 h -8.3076 c -0.1083,0 -0.1961,0.0878 -0.1961,0.1964 0,0.1083 0.088,0.1964 0.1961,0.1964 h 8.504 c 0.1086,0 0.1965,-0.0881 0.1965,-0.1964 v -1.7429 c 0,-0.4327 -0.3523,-0.7852 -0.7853,-0.7852 h -0.5866 c -0.1083,0 -0.1961,0.0878 -0.1961,0.1964 0,0.1086 0.088,0.1964 0.1961,0.1964 z"
         style="fill:#ffffff;fill-rule:evenodd"
         id="path3107" />
      <g
         id="Layer1291">
        <path
           d="m 8013.9742,781.0437 c -0.1082,0 -0.196,0.0878 -0.196,0.1961 v 6.4839 c 0,0.2166 -0.1763,0.3929 -0.3928,0.3929 h -8.7378 c -0.2165,0 -0.3925,-0.1763 -0.3925,-0.3929 v -9.2282 c 0,-0.2166 0.176,-0.3928 0.3925,-0.3928 h 1.8653 c 0.1086,0 0.1964,-0.0878 0.1964,-0.1964 0,-0.1083 -0.088,-0.1964 -0.1964,-0.1964 h -0.4661 v -0.1965 c 0,-0.2165 0.176,-0.3924 0.3925,-0.3924 h 0.2456 c 0.2165,0 0.3928,0.1759 0.3928,0.3924 v 1.0309 c 0,0.1479 -0.082,0.2766 -0.203,0.3436 -0.022,-0.0845 -0.098,-0.1472 -0.1898,-0.1472 -0.1086,0 -0.1964,0.0878 -0.1964,0.1964 v 0.3928 c 0,0.1083 0.088,0.1964 0.1964,0.1964 0.1083,0 0.1964,-0.0881 0.1964,-0.1964 v -0.0251 c 0.3383,-0.0871 0.5889,-0.3951 0.5889,-0.7605 v -1.0309 c 0,-0.433 -0.3522,-0.7852 -0.7853,-0.7852 h -0.2456 c -0.4331,0 -0.7853,0.3522 -0.7853,0.7852 v 0.1965 h -1.0064 c -0.4331,0 -0.7853,0.3525 -0.7853,0.7856 v 9.2282 c 0,0.4331 0.3522,0.7857 0.7853,0.7857 h 8.7378 c 0.433,0 0.7853,-0.3526 0.7853,-0.7857 v -6.4839 c 0,-0.1083 -0.088,-0.1961 -0.1965,-0.1961 z"
           style="fill:#ffffff;fill-rule:evenodd"
           id="path3108" />
        <path
           d="m 8011.2025,784.2634 h 1.2213 c 0.1624,0 0.3093,0.066 0.4159,0.1727 0.106,0.1059 0.1723,0.2535 0.1723,0.4159 v 1.221 c 0,0.1624 -0.066,0.3099 -0.1723,0.4159 -0.1082,0.1063 -0.2548,0.1723 -0.4159,0.1723 h -1.2213 c -0.1614,0 -0.308,-0.0664 -0.4146,-0.1723 -0.1073,-0.106 -0.1736,-0.2535 -0.1736,-0.4159 v -1.221 c 0,-0.1624 0.066,-0.31 0.1723,-0.4159 0.1066,-0.1067 0.2535,-0.1727 0.4159,-0.1727 z m 0,-2.9473 h 1.2213 c 0.1624,0 0.3093,0.066 0.4159,0.1726 0.106,0.106 0.1723,0.2535 0.1723,0.4159 v 1.221 c 0,0.1624 -0.066,0.31 -0.1723,0.4159 -0.1082,0.1063 -0.2548,0.1723 -0.4159,0.1723 h -1.2213 c -0.1614,0 -0.308,-0.0663 -0.4146,-0.1723 -0.1073,-0.1059 -0.1736,-0.2535 -0.1736,-0.4159 v -1.221 c 0,-0.1624 0.066,-0.3099 0.1723,-0.4159 0.1066,-0.1066 0.2535,-0.1726 0.4159,-0.1726 z m 1.2213,0.5591 h -1.2213 l -0.021,0.009 -0.01,0.0204 v 1.221 l 0.01,0.0205 c 0,0.006 0.012,0.009 0.021,0.009 h 1.2213 l 0.021,-0.008 0.01,-0.0211 v -1.221 l -0.01,-0.0204 z m -4.0129,-0.5591 h 1.221 c 0.1611,0 0.308,0.066 0.4146,0.1726 0.108,0.1079 0.174,0.2548 0.174,0.4159 v 1.221 c 0,0.1624 -0.066,0.31 -0.1723,0.4159 -0.1083,0.1063 -0.2552,0.1723 -0.4163,0.1723 h -1.221 c -0.1624,0 -0.3099,-0.0663 -0.4159,-0.1723 -0.1059,-0.1059 -0.1723,-0.2535 -0.1723,-0.4159 v -1.221 c 0,-0.1611 0.066,-0.308 0.1723,-0.4149 0.106,-0.1073 0.2535,-0.1736 0.4159,-0.1736 z m 1.221,0.5591 h -1.221 l -0.02,0.009 -0.01,0.0208 v 1.221 l 0.01,0.0205 0.02,0.009 h 1.221 l 0.021,-0.008 0.01,-0.0211 v -1.221 l -0.01,-0.0204 z m -4.0125,-0.5591 h 1.2213 c 0.1624,0 0.3093,0.066 0.4159,0.1726 0.106,0.106 0.1723,0.2535 0.1723,0.4159 v 1.221 c 0,0.1624 -0.066,0.31 -0.1723,0.4159 -0.1083,0.1063 -0.2548,0.1723 -0.4159,0.1723 h -1.2213 c -0.1614,0 -0.308,-0.0663 -0.4146,-0.1723 -0.1073,-0.1059 -0.1736,-0.2535 -0.1736,-0.4159 v -1.221 c 0,-0.1624 0.066,-0.3099 0.1723,-0.4159 0.1066,-0.1066 0.2535,-0.1726 0.4159,-0.1726 z m 1.2213,0.5591 h -1.2213 l -0.02,0.009 -0.01,0.0204 v 1.221 l 0.01,0.0205 c 0,0.006 0.012,0.009 0.02,0.009 h 1.2213 l 0.021,-0.008 0.01,-0.0211 v -1.221 l -0.01,-0.0204 z m -1.2213,2.3882 h 1.2213 c 0.1624,0 0.3093,0.066 0.4159,0.1727 0.106,0.1059 0.1723,0.2535 0.1723,0.4159 v 1.221 c 0,0.1624 -0.066,0.3099 -0.1723,0.4159 -0.1083,0.1063 -0.2548,0.1723 -0.4159,0.1723 h -1.2213 c -0.1614,0 -0.308,-0.0664 -0.4146,-0.1723 -0.1073,-0.106 -0.1736,-0.2535 -0.1736,-0.4159 v -1.221 c 0,-0.1624 0.066,-0.31 0.1723,-0.4159 0.1066,-0.1067 0.2535,-0.1727 0.4159,-0.1727 z m 1.2213,0.5592 h -1.2213 l -0.02,0.009 -0.01,0.0205 v 1.221 l 0.01,0.0204 c 0,0.006 0.012,0.009 0.02,0.009 h 1.2213 l 0.021,-0.008 0.01,-0.0211 v -1.221 l -0.01,-0.0205 z m 1.5702,-0.5592 h 1.221 c 0.1611,0 0.308,0.066 0.4146,0.1727 0.108,0.1079 0.174,0.2548 0.174,0.4159 v 1.221 c 0,0.1624 -0.066,0.3099 -0.1723,0.4159 -0.1083,0.1063 -0.2552,0.1723 -0.4163,0.1723 h -1.221 c -0.1624,0 -0.3099,-0.0664 -0.4159,-0.1723 -0.1059,-0.106 -0.1723,-0.2535 -0.1723,-0.4159 v -1.221 c 0,-0.1611 0.066,-0.308 0.1723,-0.4149 0.106,-0.1073 0.2535,-0.1737 0.4159,-0.1737 z m 1.221,0.5592 h -1.221 l -0.02,0.009 -0.01,0.0208 v 1.221 l 0.01,0.0204 0.02,0.009 h 1.221 l 0.021,-0.008 0.01,-0.0211 v -1.221 l -0.01,-0.0205 z m 2.7919,0 h -1.2213 l -0.021,0.009 -0.01,0.0205 v 1.221 l 0.01,0.0204 c 0,0.006 0.012,0.009 0.021,0.009 h 1.2213 l 0.021,-0.008 0.01,-0.0211 v -1.221 l -0.01,-0.0205 z"
           style="fill:#ffffff;fill-rule:evenodd"
           id="path3109" />
      </g>
    </g>
  </g>
  <defs
     id="defs3166" />
  <defs
     id="defs3378" />
  <defs
     id="defs3416" />
</svg>
