<?xml version="1.0" encoding="UTF-8" standalone="no"?>
<svg
   version="1.1"
   id="Layer_1"
   x="0px"
   y="0px"
   width="100%"
   viewBox="0 0 100 100"
   enable-background="new 0 0 100 100"
   xml:space="preserve"
   sodipodi:docname="icons8-caixa-de-selecção-seleccionada-2-100 (1).svg"
   inkscape:version="1.3 (1:1.3+202307231459+0e150ed6c4)"
   xmlns:inkscape="http://www.inkscape.org/namespaces/inkscape"
   xmlns:sodipodi="http://sodipodi.sourceforge.net/DTD/sodipodi-0.dtd"
   xmlns="http://www.w3.org/2000/svg"
   xmlns:svg="http://www.w3.org/2000/svg"><defs
   id="defs3" /><sodipodi:namedview
   id="namedview3"
   pagecolor="#ffffff"
   bordercolor="#000000"
   borderopacity="0.25"
   inkscape:showpageshadow="2"
   inkscape:pageopacity="0.0"
   inkscape:pagecheckerboard="0"
   inkscape:deskcolor="#d1d1d1"
   inkscape:zoom="5.04"
   inkscape:cx="49.900794"
   inkscape:cy="50"
   inkscape:window-width="1300"
   inkscape:window-height="704"
   inkscape:window-x="0"
   inkscape:window-y="0"
   inkscape:window-maximized="1"
   inkscape:current-layer="Layer_1" />&#10;<path
   fill="#000000"
   opacity="1.000000"
   stroke="none"
   d=" M1.000000,41.000000   C1.000000,27.333338 1.000000,14.166675 1.000000,1.000009   C34.333321,1.000006 67.666641,1.000006 100.999969,1.000003   C100.999985,34.333309 100.999985,67.666618 100.999992,100.999954   C67.666702,100.999969 34.333401,100.999969 1.000051,100.999985   C1.000000,81.166664 1.000000,61.333332 1.000000,41.000000  M44.500000,93.000137   C56.498791,92.999992 68.497597,93.010559 80.496368,92.995705   C87.699669,92.986778 92.984077,87.791260 92.994164,80.687538   C93.013565,67.022331 93.000015,53.357075 93.000130,39.691841   C93.000145,36.992138 93.000130,34.292431 93.000130,31.592726   C92.426071,31.484833 91.852020,31.376938 91.277962,31.269045   C90.518654,33.529106 89.142632,35.778336 89.102730,38.051029   C88.886246,50.379272 89.448334,62.734547 88.865646,75.039001   C88.348351,85.962524 86.320999,88.473335 74.908752,88.862320   C58.928997,89.407013 42.900898,89.433556 26.924032,88.848038   C16.181824,88.454361 13.516930,86.469612 13.132858,74.872856   C12.603593,58.892067 12.957805,42.880447 13.017066,26.882345   C13.049643,18.088104 15.475751,15.020325 23.682875,13.205544   C25.118025,12.888199 26.660477,13.008718 28.153435,13.007508   C43.151852,12.995360 58.150379,12.972810 73.148628,13.024340   C75.943069,13.033941 78.326218,12.763721 78.868408,9.002037   C58.932861,9.002037 39.278027,8.938913 19.624115,9.045302   C14.550813,9.072765 9.038222,14.986806 9.023848,20.192654   C8.967249,40.690350 8.966813,61.188381 9.022358,81.686081   C9.037912,87.426262 14.695789,92.935822 20.502541,92.983910   C28.167879,93.047409 35.834137,92.999916 44.500000,93.000137  M53.012505,64.480804   C65.763893,49.343430 78.515282,34.206055 91.295357,19.034620   C89.225586,16.570148 87.595779,15.403563 85.233688,18.212770   C78.579124,26.126989 71.765633,33.907310 65.062706,41.781208   C59.604321,48.193153 54.215092,54.663967 48.873489,61.015579   C44.030254,56.667820 39.558853,52.976536 35.489212,48.885590   C32.835377,46.217854 31.087009,46.642143 29.043962,49.840122   C35.565445,55.990955 42.145184,62.196735 48.832611,68.504089   C50.373547,67.032814 51.442604,66.012085 53.012505,64.480804  z"
   id="path1"
   style="fill:#000000;fill-opacity:0"
   inkscape:export-filename="path1.svg"
   inkscape:export-xdpi="23.040001"
   inkscape:export-ydpi="23.040001" />&#10;<path
   fill="#9928F7"
   opacity="1.000000"
   stroke="none"
   d=" M44.000000,93.000137   C35.834137,92.999916 28.167879,93.047409 20.502541,92.983910   C14.695789,92.935822 9.037912,87.426262 9.022358,81.686081   C8.966813,61.188381 8.967249,40.690350 9.023848,20.192654   C9.038222,14.986806 14.550813,9.072765 19.624115,9.045302   C39.278027,8.938913 58.932861,9.002037 78.868408,9.002037   C78.326218,12.763721 75.943069,13.033941 73.148628,13.024340   C58.150379,12.972810 43.151852,12.995360 28.153435,13.007508   C26.660477,13.008718 25.118025,12.888199 23.682875,13.205544   C15.475751,15.020325 13.049643,18.088104 13.017066,26.882345   C12.957805,42.880447 12.603593,58.892067 13.132858,74.872856   C13.516930,86.469612 16.181824,88.454361 26.924032,88.848038   C42.900898,89.433556 58.928997,89.407013 74.908752,88.862320   C86.320999,88.473335 88.348351,85.962524 88.865646,75.039001   C89.448334,62.734547 88.886246,50.379272 89.102730,38.051029   C89.142632,35.778336 90.518654,33.529106 91.277962,31.269045   C91.852020,31.376938 92.426071,31.484833 93.000130,31.592726   C93.000130,34.292431 93.000145,36.992138 93.000130,39.691841   C93.000015,53.357075 93.013565,67.022331 92.994164,80.687538   C92.984077,87.791260 87.699669,92.986778 80.496368,92.995705   C68.497597,93.010559 56.498791,92.999992 44.000000,93.000137  z"
   id="path2" />&#10;<path
   fill="#9928F7"
   opacity="1.000000"
   stroke="none"
   d=" M52.762085,64.736084   C51.442604,66.012085 50.373547,67.032814 48.832611,68.504089   C42.145184,62.196735 35.565445,55.990955 29.043962,49.840122   C31.087009,46.642143 32.835377,46.217854 35.489212,48.885590   C39.558853,52.976536 44.030254,56.667820 48.873489,61.015579   C54.215092,54.663967 59.604321,48.193153 65.062706,41.781208   C71.765633,33.907310 78.579124,26.126989 85.233688,18.212770   C87.595779,15.403563 89.225586,16.570148 91.295357,19.034620   C78.515282,34.206055 65.763893,49.343430 52.762085,64.736084  z"
   id="path3" />&#10;</svg>
