<?xml version="1.0" encoding="UTF-8" standalone="no"?>
<svg
   version="1.1"
   id="Layer_1"
   x="0px"
   y="0px"
   width="100%"
   viewBox="0 0 60 60"
   enable-background="new 0 0 60 60"
   xml:space="preserve"
   sodipodi:docname="edit.svg"
   inkscape:version="1.3 (1:1.3+202307231459+0e150ed6c4)"
   xmlns:inkscape="http://www.inkscape.org/namespaces/inkscape"
   xmlns:sodipodi="http://sodipodi.sourceforge.net/DTD/sodipodi-0.dtd"
   xmlns="http://www.w3.org/2000/svg"
   xmlns:svg="http://www.w3.org/2000/svg"><defs
   id="defs4" /><sodipodi:namedview
   id="namedview4"
   pagecolor="#ffffff"
   bordercolor="#000000"
   borderopacity="0.25"
   inkscape:showpageshadow="2"
   inkscape:pageopacity="0.0"
   inkscape:pagecheckerboard="0"
   inkscape:deskcolor="#d1d1d1"
   inkscape:zoom="8.4"
   inkscape:cx="29.940476"
   inkscape:cy="30"
   inkscape:window-width="1300"
   inkscape:window-height="704"
   inkscape:window-x="0"
   inkscape:window-y="0"
   inkscape:window-maximized="1"
   inkscape:current-layer="Layer_1" />&#10;<path
   fill="#000000"
   opacity="1.000000"
   stroke="none"
   d=" M34.000004,61.000000   C22.666666,61.000000 11.833333,61.000000 1.000000,61.000000   C1.000000,41.000000 1.000000,21.000000 1.000000,1.000000   C21.000000,1.000000 41.000000,1.000000 61.000000,1.000000   C61.000000,21.000000 61.000000,41.000000 61.000000,61.000000   C52.166668,61.000000 43.333340,61.000000 34.000004,61.000000  M42.104733,8.361099   C37.404430,13.077171 32.902069,18.014307 27.949593,22.448748   C22.727699,27.124420 22.807035,32.808678 23.160913,38.806828   C30.840607,39.544209 36.851425,37.924313 41.634914,32.026493   C45.180416,27.655054 49.492653,23.890089 53.586163,19.983665   C56.560707,17.145056 57.336334,14.247721 54.462624,10.961242   C49.397675,5.168789 47.066616,4.576944 42.104733,8.361099  M37.338089,50.999802   C30.515860,50.999500 23.693594,50.986095 16.871412,51.004078   C13.107884,51.013996 11.015439,49.293953 11.007751,45.416111   C10.991254,37.096359 10.964182,28.776283 11.021652,20.456892   C11.046033,16.927500 12.928739,15.047078 16.499317,15.009705   C19.660505,14.976615 22.827375,14.887342 25.982397,15.029789   C29.265411,15.178013 29.398409,13.639751 28.545286,11.001316   C23.162384,11.001316 18.018362,10.953979 12.875692,11.017075   C9.114660,11.063218 7.041436,13.059978 7.021619,16.829777   C6.964766,27.645201 6.975369,38.461224 7.017038,49.276787   C7.030726,52.829674 9.105997,54.890217 12.483691,54.938503   C23.463566,55.095451 34.447884,55.071342 45.428741,54.953785   C48.866592,54.916977 50.880196,52.853500 50.969742,49.364155   C51.084961,44.874420 50.910728,40.377239 51.026711,35.887547   C51.116638,32.406616 49.476772,32.585358 46.999798,33.614349   C46.999798,36.621613 47.000526,39.443180 46.999653,42.264748   C46.997200,50.198917 46.212975,50.985142 37.338089,50.999802  z"
   id="path1"
   style="fill:#000000;fill-opacity:0.00135466"
   inkscape:export-filename="path1.png"
   inkscape:export-xdpi="38.400002"
   inkscape:export-ydpi="38.400002" />&#10;<path
   fill="#9928f7"
   opacity="1"
   stroke="none"
   d="m 42.389404,8.114208 c 4.677212,-3.537264 7.008271,-2.945419 12.07322,2.847034 2.87371,3.286479 2.098083,6.183814 -0.876461,9.022423 -4.09351,3.906424 -8.405747,7.671389 -11.951249,12.042828 -4.783489,5.89782 -10.794307,7.517716 -18.474001,6.780335 -0.353878,-5.99815 -0.433214,-11.682408 4.78868,-16.35808 4.952476,-4.434441 9.454837,-9.371577 14.439811,-14.33454 M 34.153611,31.5124 c 4.645218,-3.748752 6.747192,-6.004292 10.905879,-9.360405 -1.100405,-2.389717 -2.235003,-2.893452 -4.598904,-5.278375 -6.256225,5.863684 -13.925927,12.362854 -11.847917,17.121768 1.079164,0.227984 4.503443,-1.071056 5.540942,-2.482988 z"
   id="path2"
   sodipodi:nodetypes="cssscscccccc" />&#10;<path
   fill="#9928F7"
   opacity="1.000000"
   stroke="none"
   d=" M37.813953,50.999802   C46.212975,50.985142 46.997200,50.198917 46.999653,42.264748   C47.000526,39.443180 46.999798,36.621613 46.999798,33.614349   C49.476772,32.585358 51.116638,32.406616 51.026711,35.887547   C50.910728,40.377239 51.084961,44.874420 50.969742,49.364155   C50.880196,52.853500 48.866592,54.916977 45.428741,54.953785   C34.447884,55.071342 23.463566,55.095451 12.483691,54.938503   C9.105997,54.890217 7.030726,52.829674 7.017038,49.276787   C6.975369,38.461224 6.964766,27.645201 7.021619,16.829777   C7.041436,13.059978 9.114660,11.063218 12.875692,11.017075   C18.018362,10.953979 23.162384,11.001316 28.545286,11.001316   C29.398409,13.639751 29.265411,15.178013 25.982397,15.029789   C22.827375,14.887342 19.660505,14.976615 16.499317,15.009705   C12.928739,15.047078 11.046033,16.927500 11.021652,20.456892   C10.964182,28.776283 10.991254,37.096359 11.007751,45.416111   C11.015439,49.293953 13.107884,51.013996 16.871412,51.004078   C23.693594,50.986095 30.515860,50.999500 37.813953,50.999802  z"
   id="path3" />&#10;&#10;</svg>
